<svg width="50" height="50" viewBox="0 0 50 50" fill="none" xmlns="http://www.w3.org/2000/svg">
<path d="M41.6668 45.8337V33.3337C41.6668 24.1289 34.2049 16.667 25.0002 16.667C18.8311 16.667 13.4449 20.0186 10.5632 25.0003M8.3335 45.8337V33.3337" stroke="#074784" stroke-width="2" stroke-linecap="round"/>
<path d="M29.772 23.958C31.8609 24.8036 33.529 26.4716 34.3746 28.5606" stroke="#074784" stroke-width="2" stroke-linecap="round"/>
<path d="M25 4.16699V10.417" stroke="#074784" stroke-width="2" stroke-linecap="round"/>
<path d="M43.75 12.5L40.625 15.625" stroke="#074784" stroke-width="2" stroke-linecap="round"/>
<path d="M6.25 12.5L9.375 15.625" stroke="#074784" stroke-width="2" stroke-linecap="round"/>
<path d="M28.125 36.458C28.125 38.1839 26.7259 39.583 25 39.583C23.2741 39.583 21.875 38.1839 21.875 36.458C21.875 34.7321 23.2741 33.333 25 33.333C26.7259 33.333 28.125 34.7321 28.125 36.458Z" stroke="#074784" stroke-width="2"/>
<path d="M25 39.583V45.833" stroke="#074784" stroke-width="2" stroke-linecap="round"/>
<path d="M4.1665 45.833H29.1665M45.8332 45.833H37.4998" stroke="#074784" stroke-width="1.5" stroke-linecap="round"/>
</svg>
