<svg width="50" height="50" viewBox="0 0 50 50" fill="none" xmlns="http://www.w3.org/2000/svg">
<path d="M14.5835 8.33301V5.20801" stroke="#074784" stroke-width="2" stroke-linecap="round"/>
<path d="M35.4165 8.33301V5.20801" stroke="#074784" stroke-width="2" stroke-linecap="round"/>
<circle cx="34.375" cy="34.375" r="3.125" stroke="#074784" stroke-width="2"/>
<path d="M44.7915 18.75H34.6353H22.3957M4.16651 18.75H12.2394" stroke="#074784" stroke-width="2" stroke-linecap="round"/>
<path d="M29.1665 45.833H20.8332C12.9764 45.833 9.04806 45.833 6.60728 43.3922C4.1665 40.9515 4.1665 37.0231 4.1665 29.1663V24.9997C4.1665 17.1429 4.1665 13.2146 6.60728 10.7738C9.04806 8.33301 12.9764 8.33301 20.8332 8.33301H29.1665C37.0232 8.33301 40.9516 8.33301 43.3924 10.7738C45.8332 13.2146 45.8332 17.1429 45.8332 24.9997V29.1663C45.8332 37.0231 45.8332 40.9515 43.3924 43.3922C42.0316 44.753 40.2084 45.3551 37.4998 45.6216" stroke="#074784" stroke-width="2" stroke-linecap="round"/>
</svg>
