<svg width="50" height="50" viewBox="0 0 50 50" fill="none" xmlns="http://www.w3.org/2000/svg">
<path d="M4.1665 10.9531C4.1665 7.20522 7.43109 4.16699 11.4582 4.16699C15.4852 4.16699 18.7498 7.20522 18.7498 10.9531C18.7498 14.6715 16.4226 19.0107 12.7916 20.5624C11.9451 20.9241 10.9712 20.9241 10.1248 20.5624C6.49375 19.0107 4.1665 14.6715 4.1665 10.9531Z" stroke="#074784" stroke-width="2"/>
<path d="M31.25 35.9531C31.25 32.2052 34.5146 29.167 38.5417 29.167C42.5687 29.167 45.8333 32.2052 45.8333 35.9531C45.8333 39.6715 43.5061 44.0107 39.8751 45.5624C39.0286 45.9241 38.0547 45.9241 37.2083 45.5624C33.5772 44.0107 31.25 39.6715 31.25 35.9531Z" stroke="#074784" stroke-width="2"/>
<path d="M25 9.41699C24.4477 9.41699 24 9.86471 24 10.417C24 10.9693 24.4477 11.417 25 11.417V9.41699ZM25 39.5837L25.7071 40.2908C26.0976 39.9002 26.0976 39.2671 25.7071 38.8766L25 39.5837ZM35.8451 18.0989L36.382 18.9426L35.8451 18.0989ZM14.1549 31.9017L14.6918 32.7454L14.1549 31.9017ZM22.5821 35.7516C22.1916 35.361 21.5584 35.361 21.1679 35.7516C20.7774 36.1421 20.7774 36.7752 21.1679 37.1658L22.5821 35.7516ZM21.1679 42.0016C20.7774 42.3921 20.7774 43.0252 21.1679 43.4158C21.5584 43.8063 22.1916 43.8063 22.5821 43.4158L21.1679 42.0016ZM22.2631 27.9273C22.729 27.6308 22.8664 27.0127 22.5699 26.5468C22.2733 26.0808 21.6553 25.9435 21.1893 26.24L22.2631 27.9273ZM27.7369 22.0733C27.271 22.3698 27.1336 22.9879 27.4302 23.4539C27.7267 23.9198 28.3447 24.0572 28.8107 23.7607L27.7369 22.0733ZM33.6081 9.41699H25V11.417H33.6081V9.41699ZM25 38.5837H16.3919V40.5837H25V38.5837ZM25.7071 38.8766L22.5821 35.7516L21.1679 37.1658L24.2929 40.2908L25.7071 38.8766ZM24.2929 38.8766L21.1679 42.0016L22.5821 43.4158L25.7071 40.2908L24.2929 38.8766ZM16.3919 38.5837C13.2238 38.5837 12.019 34.4463 14.6918 32.7454L13.6181 31.0581C9.25721 33.8332 11.2229 40.5837 16.3919 40.5837V38.5837ZM33.6081 11.417C36.7762 11.417 37.981 15.5544 35.3082 17.2553L36.382 18.9426C40.7428 16.1675 38.7771 9.41699 33.6081 9.41699V11.417ZM21.1893 26.24L13.6181 31.0581L14.6918 32.7454L22.2631 27.9273L21.1893 26.24ZM35.3082 17.2553L27.7369 22.0733L28.8107 23.7607L36.382 18.9426L35.3082 17.2553Z" fill="#074784"/>
<path d="M38.5415 36.458H38.5603" stroke="#074784" stroke-width="2" stroke-linecap="round" stroke-linejoin="round"/>
<path d="M11.439 11.458H11.4577" stroke="#074784" stroke-width="2" stroke-linecap="round" stroke-linejoin="round"/>
</svg>
