<svg width="50" height="50" viewBox="0 0 50 50" fill="none" xmlns="http://www.w3.org/2000/svg">
<path d="M24.9998 11.4598L24.2794 12.1533C24.4679 12.3492 24.728 12.4598 24.9998 12.4598C25.2717 12.4598 25.5318 12.3492 25.7203 12.1533L24.9998 11.4598ZM18.6701 39.3978L18.051 40.1832L18.6701 39.3978ZM14.227 34.6447C13.8006 34.2938 13.1704 34.3549 12.8194 34.7814C12.4684 35.2078 12.5296 35.838 12.9561 36.189L14.227 34.6447ZM5.37248 27.6708C5.6375 28.1554 6.24514 28.3334 6.72968 28.0683C7.21423 27.8033 7.3922 27.1957 7.12719 26.7111L5.37248 27.6708ZM37.8562 42.0194L37.2565 41.2191H37.2565L37.8562 42.0194ZM44.0568 26.912L44.7802 26.2216L44.0568 26.912ZM34.3748 27.4135L33.6722 28.125C34.0617 28.5096 34.688 28.5096 35.0775 28.125L34.3748 27.4135ZM30.8937 42.0194L31.4934 41.2191L30.8937 42.0194ZM24.6931 26.912L25.4165 27.6025L24.6931 26.912ZM40.1787 41.5504C40.6225 41.2216 40.7157 40.5953 40.3869 40.1516C40.0581 39.7078 39.4318 39.6146 38.9881 39.9434L40.1787 41.5504ZM43.9305 34.9417C43.6681 35.4277 43.8494 36.0344 44.3354 36.2968C44.8213 36.5592 45.428 36.3779 45.6904 35.892L43.9305 34.9417ZM43.954 26.8068L43.2469 27.5139L43.954 26.8068ZM5.1665 19.0358C5.1665 14.3444 7.81827 10.381 11.4834 8.70566C15.0855 7.05914 19.8479 7.54924 24.2794 12.1533L25.7203 10.7664C20.7771 5.6305 15.1229 4.84302 10.6519 6.88669C6.24407 8.90154 3.1665 13.5961 3.1665 19.0358H5.1665ZM18.051 40.1832C19.1234 41.0285 20.2387 41.9006 21.3603 42.556C22.4816 43.2113 23.7043 43.7085 24.9998 43.7085V41.7085C24.212 41.7085 23.3514 41.403 22.3694 40.8292C21.3878 40.2556 20.3799 39.4724 19.2892 38.6125L18.051 40.1832ZM46.8332 19.0358C46.8332 13.5961 43.7556 8.90154 39.3477 6.88669C34.8768 4.84302 29.2226 5.6305 24.2794 10.7664L25.7203 12.1533C30.1517 7.54924 34.9142 7.05914 38.5163 8.70566C42.1814 10.381 44.8332 14.3444 44.8332 19.0358H46.8332ZM19.2892 38.6125C17.651 37.3211 15.9403 36.0548 14.227 34.6447L12.9561 36.189C14.6822 37.6096 16.4838 38.9477 18.051 40.1832L19.2892 38.6125ZM7.12719 26.7111C5.91644 24.4974 5.1665 21.9838 5.1665 19.0358H3.1665C3.1665 22.3456 4.01397 25.1869 5.37248 27.6708L7.12719 26.7111ZM37.2565 41.2191C36.6528 41.6715 36.1225 42.0621 35.6135 42.3449C35.1053 42.6272 34.7064 42.7502 34.3748 42.7502V44.7502C35.1891 44.7502 35.9361 44.4535 36.5846 44.0933C37.2324 43.7335 37.8699 43.2587 38.4558 42.8196L37.2565 41.2191ZM46.8332 31.3742C46.8332 29.3693 46.0485 27.5503 44.7802 26.2216L43.3335 27.6025C44.2575 28.5706 44.8332 29.8991 44.8332 31.3742H46.8332ZM30.2941 42.8196C30.88 43.2586 31.5174 43.7334 32.1651 44.0933C32.8137 44.4535 33.5605 44.7502 34.3748 44.7502V42.7502C34.0433 42.7502 33.6445 42.6272 33.1363 42.3449C32.6274 42.0622 32.0972 41.6716 31.4934 41.2191L30.2941 42.8196ZM23.9168 31.3742C23.9168 29.8991 24.4924 28.5706 25.4165 27.6025L23.9697 26.2216C22.7014 27.5503 21.9168 29.3693 21.9168 31.3742H23.9168ZM25.4165 27.6025C26.3612 26.6128 27.6616 26.0074 29.0809 26.0002C30.4893 25.9931 32.1035 26.5758 33.6722 28.125L35.0775 26.7019C33.184 24.8319 31.0776 23.9901 29.0708 24.0003C27.075 24.0103 25.2657 24.8639 23.9697 26.2216L25.4165 27.6025ZM38.4558 42.8196C39.0099 42.4044 39.5669 42.0037 40.1787 41.5504L38.9881 39.9434C38.4165 40.3669 37.8049 40.8082 37.2565 41.2191L38.4558 42.8196ZM45.6904 35.892C46.3971 34.5831 46.8332 33.0912 46.8332 31.3742H44.8332C44.8332 32.7342 44.492 33.9018 43.9305 34.9417L45.6904 35.892ZM31.4934 41.2191C31 40.8494 30.4705 40.4661 29.9568 40.0874L28.7702 41.6974C29.3048 42.0915 29.8075 42.455 30.2941 42.8196L31.4934 41.2191ZM29.9568 40.0874C26.8304 37.7832 23.9168 35.3385 23.9168 31.3742H21.9168C21.9168 36.4633 25.7314 39.4577 28.7702 41.6974L29.9568 40.0874ZM28.7854 40.0764C27.3334 41.1051 26.1104 41.7085 24.9998 41.7085V43.7085C26.7806 43.7085 28.4489 42.7658 29.9415 41.7084L28.7854 40.0764ZM44.7802 26.2216C44.741 26.1805 44.7014 26.1399 44.6612 26.0998L43.2469 27.5139C43.276 27.543 43.3049 27.5726 43.3335 27.6025L44.7802 26.2216ZM44.6612 26.0998C43.3546 24.7929 41.5592 23.9852 39.5887 24.0004C37.6082 24.0157 35.5368 24.8604 33.6722 26.7019L35.0775 28.125C36.6227 26.5989 38.212 26.0111 39.6041 26.0003C41.0062 25.9895 42.2954 26.5622 43.2469 27.5139L44.6612 26.0998ZM44.8426 27.2656C46.0754 24.8777 46.8332 22.1655 46.8332 19.0358H44.8332C44.8332 21.8252 44.1618 24.2245 43.0655 26.3481L44.8426 27.2656Z" fill="#074784"/>
</svg>
