<svg width="67" height="41" viewBox="0 0 67 41" fill="none" xmlns="http://www.w3.org/2000/svg">
<path d="M66.6794 20.5859C66.6794 31.5603 57.7564 40.5859 46.6794 40.5859C35.7051 40.5859 26.6794 31.5603 26.6794 20.5859C26.6794 9.61158 35.6025 0.585938 46.5769 0.585938C57.7564 0.585938 66.6794 9.61158 66.6794 20.5859Z" fill="#F9B50B"/>
<path d="M39.9101 20.6885C39.9101 19.2526 39.705 17.8167 39.4999 16.4834H27.1922C27.2947 15.7654 27.4999 15.15 27.705 14.3295H38.6794C38.4742 13.6116 38.1665 12.8936 37.8589 12.1757H28.5255C28.8332 11.4577 29.2435 10.8423 29.6537 10.0218H36.7306C36.3204 9.30389 35.8076 8.58594 35.1922 7.86799H31.2947C31.9101 7.15004 32.5255 6.53466 33.346 5.81671C29.8589 2.53466 25.1409 0.585938 19.9101 0.585938C9.03834 0.89363 0.0126953 9.61158 0.0126953 20.5859C0.0126953 31.5603 8.93577 40.5859 20.0127 40.5859C25.2435 40.5859 29.8588 38.5347 33.4486 35.3552C34.1665 34.7398 34.7819 34.0218 35.4999 33.2013H31.3973C30.8845 32.5859 30.3717 31.868 29.9614 31.15H36.9358C37.346 30.5347 37.7563 29.8167 38.064 28.9962H28.7306C28.423 28.3808 28.1153 27.6629 27.9101 26.8424H38.8845C39.4999 24.9962 39.9101 22.9449 39.9101 20.6885Z" fill="#C8191C"/>
<path d="M27.0896 25.7142L27.3973 23.868C27.2947 23.868 27.0896 23.9706 26.8845 23.9706C26.1665 23.9706 26.064 23.5603 26.1665 23.3552L26.7819 19.6629H27.9101L28.2178 17.6116H27.1922L27.3973 16.3809H25.2435C25.2435 16.3809 24.0127 23.3552 24.0127 24.1757C24.0127 25.4065 24.7306 26.0219 25.7563 26.0219C26.3717 26.0219 26.8845 25.8168 27.0896 25.7142Z" fill="white"/>
<path d="M27.8069 22.3301C27.8069 25.3045 29.8582 26.0224 31.4992 26.0224C33.0377 26.0224 33.7556 25.7147 33.7556 25.7147L34.1659 23.6634C34.1659 23.6634 33.0377 24.1763 31.9094 24.1763C29.5505 24.1763 29.9607 22.4327 29.9607 22.4327H34.2684C34.2684 22.4327 34.5761 21.0993 34.5761 20.484C34.5761 19.1506 33.8582 17.407 31.4992 17.407C29.4479 17.3045 27.8069 19.6634 27.8069 22.3301ZM31.4992 19.2532C32.6274 19.2532 32.4223 20.5865 32.4223 20.6891H30.0633C30.1659 20.5865 30.371 19.2532 31.4992 19.2532Z" fill="white"/>
<path d="M44.9358 25.714L45.346 23.355C45.346 23.355 44.3204 23.8678 43.4999 23.8678C42.064 23.8678 41.346 22.7396 41.346 21.4063C41.346 18.8422 42.5768 17.5088 44.1152 17.5088C45.1409 17.5088 46.064 18.1242 46.064 18.1242L46.3717 15.8678C46.3717 15.8678 45.1409 15.355 43.9101 15.355C41.4486 15.355 39.0896 17.5088 39.0896 21.5088C39.0896 24.1755 40.3204 25.9191 42.8845 25.9191C43.8075 26.0216 44.9358 25.714 44.9358 25.714Z" fill="white"/>
<path d="M15.4998 17.3032C14.0639 17.3032 12.9357 17.7135 12.9357 17.7135L12.628 19.5596C12.628 19.5596 13.551 19.1494 14.9869 19.1494C15.7049 19.1494 16.3203 19.2519 16.3203 19.8673C16.3203 20.2776 16.2177 20.3801 16.2177 20.3801H15.2946C13.4485 20.3801 11.4998 21.0981 11.4998 23.5596C11.4998 25.5084 12.7305 25.9186 13.551 25.9186C14.9869 25.9186 15.7049 24.9955 15.8074 24.9955L15.7049 25.816H17.4485L18.269 19.9699C18.269 17.4058 16.2177 17.3032 15.4998 17.3032ZM15.91 22.0212C15.91 22.3289 15.7049 24.0725 14.4741 24.0725C13.8587 24.0725 13.6536 23.5596 13.6536 23.2519C13.6536 22.7391 13.9613 22.0212 15.6023 22.0212C15.8074 22.0212 15.91 22.0212 15.91 22.0212Z" fill="white"/>
<path d="M20.3202 25.9196C20.833 25.9196 23.4997 26.0222 23.4997 23.1504C23.4997 20.4837 20.9356 20.9965 20.9356 19.9709C20.9356 19.4581 21.3458 19.2529 22.0638 19.2529C22.3715 19.2529 23.4997 19.3555 23.4997 19.3555L23.8074 17.4068C23.8074 17.4068 23.0894 17.2017 21.7561 17.2017C20.2176 17.2017 18.5766 17.817 18.5766 19.9709C18.5766 22.4324 21.2433 22.2273 21.2433 23.1504C21.2433 23.7658 20.5253 23.8683 20.0125 23.8683C19.0894 23.8683 18.0638 23.5606 18.0638 23.5606L17.7561 25.5094C17.9612 25.7145 18.5766 25.9196 20.3202 25.9196Z" fill="white"/>
<path d="M62.5769 15.6626L62.1667 18.5344C62.1667 18.5344 61.3461 17.5088 60.1154 17.5088C58.1667 17.5088 56.5256 19.8677 56.5256 22.637C56.5256 24.3805 57.3461 26.1241 59.1923 26.1241C60.4231 26.1241 61.2436 25.3036 61.2436 25.3036L61.141 26.0216H63.2949L64.8333 15.8677L62.5769 15.6626ZM61.5513 21.2011C61.5513 22.3293 61.0385 23.8677 59.8077 23.8677C59.0897 23.8677 58.6795 23.2523 58.6795 22.1241C58.6795 20.3805 59.3974 19.3549 60.4231 19.3549C61.141 19.4575 61.5513 19.9703 61.5513 21.2011Z" fill="white"/>
<path d="M3.91041 25.8164L5.14118 18.2267L5.34631 25.8164H6.78221L9.55144 18.2267L8.42323 25.8164H10.6796L12.4232 15.6626H8.93605L6.78221 21.919L6.67964 15.6626H3.60272L1.85913 25.8164H3.91041Z" fill="white"/>
<path d="M36.731 25.817C37.3464 22.3298 37.449 19.458 38.9875 19.9708C39.1926 18.6375 39.5003 18.0221 39.7054 17.5093H39.2951C38.3721 17.5093 37.5516 18.74 37.5516 18.74L37.7567 17.6118H35.7054L34.3721 25.817H36.731Z" fill="white"/>
<path d="M49.8591 17.3032C48.4232 17.3032 47.295 17.7135 47.295 17.7135L46.9873 19.5596C46.9873 19.5596 47.9104 19.1494 49.3463 19.1494C50.0643 19.1494 50.6796 19.2519 50.6796 19.8673C50.6796 20.2776 50.5771 20.3801 50.5771 20.3801H49.654C47.8078 20.3801 45.8591 21.0981 45.8591 23.5596C45.8591 25.5084 47.0899 25.9186 47.9104 25.9186C49.3463 25.9186 50.0643 24.9955 50.1668 24.9955L50.0643 25.816H52.013L52.8335 19.9699C52.8335 17.4058 50.5771 17.3032 49.8591 17.3032ZM50.3719 22.0212C50.3719 22.3289 50.1668 24.0725 48.9361 24.0725C48.3207 24.0725 48.1155 23.5596 48.1155 23.2519C48.1155 22.7391 48.4232 22.0212 50.0643 22.0212C50.2694 22.0212 50.2694 22.0212 50.3719 22.0212Z" fill="white"/>
<path d="M54.4745 25.817C55.0898 22.3298 55.1924 19.458 56.7309 19.9708C56.936 18.6375 57.2437 18.0221 57.4488 17.5093H57.0386C56.1155 17.5093 55.295 18.74 55.295 18.74L55.5001 17.6118H53.4488L52.1155 25.817H54.4745Z" fill="white"/>
</svg>
