<svg width="98" height="31" viewBox="0 0 98 31" fill="none" xmlns="http://www.w3.org/2000/svg">
<path d="M91.2507 1.01465H85.1079C83.2507 1.01465 81.8222 1.58608 80.965 3.44322L69.2507 30.1575H77.5364C77.5364 30.1575 78.965 26.5861 79.2507 25.7289C80.1079 25.7289 88.2507 25.7289 89.3936 25.7289C89.6793 26.7289 90.3936 30.0147 90.3936 30.0147H97.8222L91.2507 1.01465ZM81.5364 19.7289C82.2507 18.0146 84.6793 11.5861 84.6793 11.5861C84.6793 11.7289 85.3936 9.87179 85.6793 8.87179L86.2507 11.4432C86.2507 11.4432 87.8222 18.4432 88.1079 19.8718H81.5364V19.7289Z" fill="#3362AB"/>
<path d="M69.8224 20.5859C69.8224 26.5859 64.3939 30.5859 55.9653 30.5859C52.3939 30.5859 48.9653 29.8717 47.1082 29.0145L48.251 22.4431L49.251 22.8717C51.8224 24.0145 53.5367 24.4431 56.6796 24.4431C58.9653 24.4431 61.3939 23.5859 61.3939 21.5859C61.3939 20.3002 60.3939 19.4431 57.251 18.0145C54.251 16.5859 50.251 14.3002 50.251 10.1574C50.251 4.44308 55.8224 0.585938 63.6796 0.585938C66.6796 0.585938 69.251 1.15737 70.8224 1.87165L69.6796 8.15737L69.1082 7.58594C67.6796 7.01451 65.8224 6.44308 63.1081 6.44308C60.1081 6.58594 58.6796 7.87165 58.6796 9.01451C58.6796 10.3002 60.3939 11.3002 63.1081 12.5859C67.6796 14.7288 69.8224 17.1574 69.8224 20.5859Z" fill="#3362AB"/>
<path d="M0.10791 1.29994L0.250767 0.728516H12.5365C14.2508 0.728516 15.5365 1.29994 15.9651 3.15709L18.6793 16.0142C15.9651 9.15709 9.67934 3.58566 0.10791 1.29994Z" fill="#F9B50B"/>
<path d="M35.9653 1.01493L23.5368 30.0149H15.1082L7.96533 5.72921C13.1082 9.01493 17.3939 14.1578 18.9653 17.7292L19.8225 20.7292L27.5368 0.87207H35.9653V1.01493Z" fill="#3362AB"/>
<path d="M39.2512 0.87207H47.1084L42.1084 30.0149H34.2512L39.2512 0.87207Z" fill="#3362AB"/>
</svg>
