<svg width="50" height="50" viewBox="0 0 50 50" fill="none" xmlns="http://www.w3.org/2000/svg">
<path d="M21.145 18.3382L20.5559 19.1463L21.145 18.3382ZM24.9997 6.47148L24.3229 7.20771C24.7056 7.5594 25.2938 7.5594 25.6764 7.20771L24.9997 6.47148ZM28.8544 18.3382L29.4435 19.1463L28.8544 18.3382ZM24.9997 20.1586L24.9997 21.1586L24.9997 20.1586ZM21.734 17.5301C20.2798 16.4701 18.7076 15.1663 17.5088 13.7767C16.286 12.3591 15.583 11.0031 15.583 9.82275H13.583C13.583 11.7364 14.6779 13.5569 15.9945 15.0831C17.3351 16.6371 19.0439 18.0441 20.5559 19.1463L21.734 17.5301ZM15.583 9.82275C15.583 7.40729 16.792 5.91282 18.3525 5.38765C19.9485 4.85056 22.1824 5.2402 24.3229 7.20771L25.6764 5.73525C23.1296 3.39425 20.1552 2.6708 17.7146 3.49211C15.2387 4.32535 13.583 6.66077 13.583 9.82275H15.583ZM29.4435 19.1463C30.9555 18.0441 32.6643 16.6371 34.0049 15.0831C35.3215 13.5569 36.4163 11.7364 36.4163 9.82272H34.4163C34.4163 11.0031 33.7134 12.3592 32.4905 13.7767C31.2917 15.1663 29.7195 16.4701 28.2653 17.5301L29.4435 19.1463ZM36.4163 9.82272C36.4163 6.66075 34.7607 4.32534 32.2847 3.49211C29.8442 2.6708 26.8698 3.39425 24.3229 5.73525L25.6764 7.20771C27.8169 5.2402 30.0508 4.85056 31.6468 5.38765C33.2073 5.91282 34.4163 7.40728 34.4163 9.82272H36.4163ZM20.5559 19.1463C22.162 20.3171 23.2601 21.1586 24.9997 21.1586L24.9997 19.1586C24.0244 19.1586 23.4575 18.7865 21.734 17.5301L20.5559 19.1463ZM28.2653 17.5301C26.5418 18.7865 25.975 19.1586 24.9997 19.1586L24.9997 21.1586C26.7393 21.1586 27.8373 20.3171 29.4435 19.1463L28.2653 17.5301Z" fill="#074784"/>
<path d="M8.33301 44.5591H13.0412C15.1472 44.5591 17.2758 44.7785 19.3254 45.2008C22.9509 45.9477 26.7681 46.0382 30.4308 45.4453M28.4921 38.5775C28.7417 38.5486 28.9809 38.5154 29.2092 38.479C31.1079 38.1761 32.7018 37.1615 34.161 36.0592L37.926 33.2151C39.2533 32.2125 41.2232 32.2123 42.5508 33.2147C43.7459 34.1171 44.1114 35.6029 43.3558 36.8141C42.4746 38.2264 41.2332 40.0333 40.0412 41.1373M28.4921 38.5775C28.4169 38.5862 28.3409 38.5945 28.2639 38.6024M28.4921 38.5775C28.7958 38.5124 29.0975 38.3251 29.3804 38.0781C30.7204 36.9086 30.8052 34.9375 29.6425 33.6315C29.3727 33.3285 29.0571 33.0758 28.7061 32.8665C22.8783 29.3905 13.811 32.0379 8.33301 35.9227M28.4921 38.5775C28.4161 38.5938 28.3399 38.6024 28.2639 38.6024M28.2639 38.6024C27.1735 38.7144 25.8979 38.7433 24.4825 38.6096" stroke="#074784" stroke-width="2" stroke-linecap="round"/>
</svg>
