<svg width="50" height="50" viewBox="0 0 50 50" fill="none" xmlns="http://www.w3.org/2000/svg">
<path d="M21.0938 18.4893C21.0938 16.3319 22.8426 14.583 25 14.583C27.1574 14.583 28.9062 16.3319 28.9062 18.4893C28.9062 19.9214 28.1355 21.1736 26.9862 21.8536C25.9959 22.4395 25 23.3282 25 24.4788V27.083" stroke="#074784" stroke-width="2" stroke-linecap="round"/>
<circle cx="24.9998" cy="33.3333" r="2.08333" fill="#074784"/>
<path d="M14.5832 6.95412C17.6475 5.18152 21.2052 4.16699 24.9998 4.16699C36.5058 4.16699 45.8332 13.4944 45.8332 25.0003C45.8332 36.5063 36.5058 45.8337 24.9998 45.8337C13.4939 45.8337 4.1665 36.5063 4.1665 25.0003C4.1665 21.2057 5.18103 17.648 6.95363 14.5837" stroke="#074784" stroke-width="2" stroke-linecap="round"/>
</svg>
