<svg width="50" height="50" viewBox="0 0 50 50" fill="none" xmlns="http://www.w3.org/2000/svg">
<path d="M45.8332 29.1671C45.8332 37.0239 45.8332 40.9523 43.3924 43.393C40.9516 45.8338 37.0232 45.8338 29.1665 45.8338H20.8332C12.9764 45.8338 9.04806 45.8338 6.60728 43.393C4.1665 40.9523 4.1665 37.0239 4.1665 29.1671C4.1665 21.3104 4.1665 17.382 6.60728 14.9412C7.96808 13.5805 9.79127 12.9783 12.4998 12.7119M37.4998 12.7119C40.2084 12.9783 42.0316 13.5805 43.3924 14.9412C44.7532 16.302 45.3553 18.1252 45.6217 20.8337" stroke="#074784" stroke-width="2" stroke-linecap="round"/>
<path d="M20.8335 12.5H29.1668" stroke="#074784" stroke-width="2" stroke-linecap="round"/>
<path d="M22.9165 18.75H27.0832" stroke="#074784" stroke-width="2" stroke-linecap="round"/>
<path d="M29.1667 4.17188C32.722 4.20202 34.682 4.3994 35.9745 5.69193C37.5 7.21741 37.5 9.67264 37.5 14.5831V18.8815C37.5 19.8412 37.5 20.321 37.3033 20.741C37.1066 21.1609 36.738 21.4681 36.0008 22.0825L34.5015 23.3318M20.8333 4.17188C17.278 4.20202 15.318 4.3994 14.0255 5.69193C12.5 7.21741 12.5 9.67264 12.5 14.5831V18.8815C12.5 19.8412 12.5 20.321 12.6967 20.741C12.8934 21.1609 13.262 21.4681 13.9992 22.0825L16.9977 24.5812C20.824 27.7698 22.7372 29.3641 25 29.3641C26.3527 29.3641 27.5805 28.7944 29.1667 27.6549" stroke="#074784" stroke-width="2" stroke-linecap="round"/>
</svg>
