<svg width="50" height="50" viewBox="0 0 50 50" fill="none" xmlns="http://www.w3.org/2000/svg">
<path d="M25 12.5C35.3553 12.5 43.75 11.1009 43.75 9.375C43.75 8.29152 40.4416 7.33683 35.4167 6.77623M25 6.25C14.6447 6.25 6.25 7.64911 6.25 9.375C6.25 10.602 10.4928 11.6638 16.6667 12.1752" stroke="#074784" stroke-width="2" stroke-linecap="round"/>
<path d="M41.6668 16.667C41.6668 16.667 35.852 18.7503 24.4254 18.7503C12.9989 18.7503 8.3335 16.667 8.3335 16.667" stroke="#074784" stroke-width="2" stroke-linecap="round"/>
<path d="M33.3332 29.167C33.3332 29.167 30.7131 30.2087 24.9998 30.2087C19.2865 30.2087 16.6665 29.167 16.6665 29.167" stroke="#074784" stroke-width="2" stroke-linecap="round"/>
<path d="M27.0835 35.4167C24.2677 35.4167 22.2032 35.1637 20.8335 34.907M33.3335 34.375C32.7047 34.5898 32.0239 34.801 31.2502 34.9764" stroke="#074784" stroke-width="2" stroke-linecap="round"/>
<path d="M24.4141 40.5434C25.2145 40.5942 26.1036 40.6248 27.0838 40.6248C28.2788 40.6248 29.3047 40.5331 30.2088 40.3867" stroke="#074784" stroke-width="2" stroke-linecap="round"/>
<path d="M37.5 22.917C37.5 22.917 36.4266 25.0003 25 25.0003M12.5 22.917C12.5 22.917 12.9563 23.8027 16.4412 24.4191" stroke="#074784" stroke-width="2" stroke-linecap="round"/>
<path d="M27.0835 45.833C27.0835 45.833 27.7184 45.833 28.1252 45.833" stroke="#074784" stroke-width="2" stroke-linecap="round"/>
</svg>
