<svg width="51" height="51" viewBox="0 0 51 51" fill="none" xmlns="http://www.w3.org/2000/svg">
<path d="M21.5776 18.4195L20.9885 19.2276L21.5776 18.4195ZM25.4323 6.55278L24.7556 7.28901C25.1382 7.6407 25.7264 7.6407 26.109 7.28901L25.4323 6.55278ZM29.287 18.4195L29.8761 19.2276L29.287 18.4195ZM25.4323 20.2399L25.4323 21.2399L25.4323 20.2399ZM22.1666 17.6114C20.7124 16.5514 19.1402 15.2476 17.9414 13.8579C16.7186 12.4404 16.0156 11.0844 16.0156 9.90405H14.0156C14.0156 11.8177 15.1105 13.6382 16.4271 15.1644C17.7677 16.7184 19.4765 18.1254 20.9885 19.2276L22.1666 17.6114ZM16.0156 9.90405C16.0156 7.48859 17.2246 5.99412 18.7852 5.46895C20.3811 4.93186 22.6151 5.3215 24.7556 7.28901L26.109 5.81655C23.5622 3.47554 20.5878 2.7521 18.1473 3.57341C15.6713 4.40665 14.0156 6.74207 14.0156 9.90405H16.0156ZM29.8761 19.2276C31.3881 18.1254 33.0969 16.7184 34.4375 15.1644C35.7541 13.6382 36.849 11.8177 36.849 9.90402H34.849C34.849 11.0844 34.146 12.4405 32.9231 13.858C31.7243 15.2476 30.1522 16.5514 28.698 17.6114L29.8761 19.2276ZM36.849 9.90402C36.849 6.74205 35.1933 4.40664 32.7173 3.57341C30.2768 2.7521 27.3024 3.47554 24.7556 5.81655L26.109 7.28901C28.2495 5.3215 30.4835 4.93186 32.0794 5.46895C33.64 5.99411 34.849 7.48858 34.849 9.90402H36.849ZM20.9885 19.2276C22.5947 20.3984 23.6927 21.2399 25.4323 21.2399L25.4323 19.2399C24.457 19.2399 23.8902 18.8678 22.1666 17.6114L20.9885 19.2276ZM28.698 17.6114C26.9744 18.8678 26.4076 19.2399 25.4323 19.2399L25.4323 21.2399C27.1719 21.2399 28.2699 20.3984 29.8761 19.2276L28.698 17.6114Z" fill="#074784"/>
<path d="M8.76562 44.6407H13.4738C15.5798 44.6407 17.7084 44.8601 19.758 45.2823C23.3835 46.0293 27.2007 46.1198 30.8634 45.5269M28.9247 38.659C29.1743 38.6301 29.4135 38.5969 29.6418 38.5605C31.5406 38.2577 33.1345 37.243 34.5936 36.1408L38.3586 33.2967C39.6859 32.294 41.6558 32.2938 42.9834 33.2962C44.1785 34.1986 44.544 35.6845 43.7884 36.8956C42.9073 38.308 41.6658 40.1148 40.4738 41.2189M28.9247 38.659C28.8496 38.6677 28.7735 38.6761 28.6965 38.684M28.9247 38.659C29.2284 38.5939 29.5301 38.4066 29.813 38.1597C31.153 36.9901 31.2378 35.019 30.0751 33.7131C29.8053 33.41 29.4897 33.1573 29.1387 32.948C23.3109 29.4721 14.2436 32.1195 8.76562 36.0043M28.9247 38.659C28.8487 38.6753 28.7725 38.684 28.6965 38.684M28.6965 38.684C27.6061 38.7959 26.3305 38.8248 24.9151 38.6912" stroke="#074784" stroke-width="2" stroke-linecap="round"/>
</svg>
