<svg width="132" height="41" viewBox="0 0 132 41" fill="none" xmlns="http://www.w3.org/2000/svg">
<path d="M18.98 17.7276H16.2817V4.07776L11.5202 15.9817H8.66322L3.74293 4.07776V17.5689H1.04471V1.06209H5.1714L9.93298 12.966L14.6945 1.06209H18.8212V17.7276H18.98ZM33.106 17.7276H30.5665V16.2991C30.249 16.7753 29.6141 17.2514 29.138 17.5689C28.5031 17.8863 27.8682 18.045 27.0746 18.045C26.281 18.045 25.4874 17.8863 24.8526 17.5689C24.2177 17.2514 23.5828 16.934 23.1067 16.2991C22.6305 15.823 22.1543 15.1881 21.8369 14.3945C21.5195 13.6009 21.3607 12.8073 21.3607 12.0137C21.3607 11.2201 21.5195 10.2678 21.8369 9.63292C22.1543 8.83933 22.4718 8.20445 23.1067 7.72829C23.5828 7.25214 24.2177 6.77598 24.8526 6.45854C25.4874 6.1411 26.281 5.98238 27.0746 5.98238C27.8682 5.98238 28.6618 6.1411 29.138 6.45854C29.7729 6.77598 30.249 7.09342 30.5665 7.72829V6.29982H33.106V17.7276ZM27.3921 8.36317C26.9159 8.36317 26.4398 8.52189 25.9636 8.68061C25.4874 8.83933 25.17 9.15676 24.8526 9.4742C24.5351 9.79164 24.3764 10.1091 24.2177 10.5852C24.059 11.0614 24.059 11.5376 24.059 12.0137C24.059 12.4899 24.059 12.966 24.2177 13.4422C24.3764 13.9183 24.5351 14.2358 24.8526 14.5532C25.17 14.8707 25.4874 15.1881 25.9636 15.3468C26.4398 15.5055 26.9159 15.6642 27.3921 15.6642C27.8682 15.6642 28.3444 15.5055 28.8205 15.3468C29.2967 15.1881 29.6141 14.8707 29.9316 14.5532C30.249 14.2358 30.4077 13.9183 30.5665 13.4422C30.7252 12.966 30.8839 12.4899 30.8839 12.0137C30.8839 11.5376 30.7252 11.0614 30.5665 10.5852C30.4077 10.1091 30.0903 9.79164 29.9316 9.4742C29.6141 9.15676 29.2967 8.83933 28.8205 8.68061C28.3444 8.36317 27.8682 8.36317 27.3921 8.36317ZM44.5337 9.15677C44.375 8.99805 44.2163 8.99805 43.8988 8.83933C43.5814 8.68061 43.4227 8.68061 43.1053 8.52189C42.7878 8.36317 42.4704 8.36317 42.1529 8.36317C41.8355 8.36317 41.5181 8.20445 41.0419 8.20445C40.407 8.20445 39.7722 8.36317 39.4547 8.52189C39.1373 8.83933 38.8198 9.15676 38.8198 9.4742C38.8198 9.63292 38.8198 9.79164 38.9786 9.95036C39.1373 10.1091 39.1373 10.2678 39.4547 10.2678C39.6134 10.4265 39.7722 10.4265 40.0896 10.4265C40.2483 10.4265 40.5658 10.5852 40.8832 10.5852L41.9942 10.744C43.264 10.9027 44.2163 11.2201 44.8512 11.855C45.486 12.3311 45.9622 13.1247 45.9622 14.0771C45.9622 14.5532 45.8035 15.1881 45.6448 15.5055C45.486 15.9817 45.0099 16.2991 44.6924 16.6166C44.2163 16.934 43.7401 17.2514 43.1053 17.4102C42.4704 17.5689 41.6768 17.7276 40.8832 17.7276C40.5658 17.7276 40.2483 17.7276 39.9309 17.7276C39.6134 17.7276 39.1373 17.5689 38.6611 17.5689C38.185 17.4102 37.7088 17.2514 37.3914 17.0927C36.9152 16.934 36.4391 16.6166 36.1216 16.2991L37.2327 14.3945C37.3914 14.5532 37.7088 14.7119 37.8675 14.8706C38.185 15.0294 38.3437 15.1881 38.6611 15.1881C38.9786 15.3468 39.296 15.3468 39.6134 15.5055C39.9309 15.5055 40.407 15.6642 40.8832 15.6642C41.6768 15.6642 42.3117 15.5055 42.7878 15.3468C43.264 15.0294 43.4227 14.7119 43.4227 14.3945C43.4227 14.0771 43.264 13.7596 42.9465 13.6009C42.6291 13.4422 42.1529 13.2835 41.5181 13.1247L40.407 12.966C39.1373 12.8073 38.185 12.4899 37.5501 11.855C36.9152 11.2201 36.5978 10.5852 36.5978 9.63292C36.5978 8.99805 36.7565 8.52189 36.9152 8.04573C37.0739 7.56957 37.3914 7.25214 37.8675 6.9347C38.3437 6.61726 38.8198 6.45854 39.296 6.1411C39.9309 5.98238 40.5658 5.82367 41.2006 5.82367C42.1529 5.82367 42.9465 5.98238 43.7401 6.1411C44.5337 6.29982 45.1686 6.61726 45.8035 7.09342L44.5337 9.15677ZM56.2789 8.52189H51.9935V13.4422C51.9935 13.7596 51.9935 14.0771 52.1522 14.3945C52.311 14.7119 52.311 14.8706 52.4697 15.0294C52.6284 15.1881 52.7871 15.3468 53.1046 15.3468C53.2633 15.3468 53.5807 15.5055 53.7394 15.5055C54.0569 15.5055 54.533 15.5055 54.8505 15.3468C55.3266 15.1881 55.6441 15.0294 55.9615 14.8706L56.9138 16.7753C56.4377 17.0927 55.9615 17.4102 55.3266 17.5689C54.6917 17.7276 54.0569 17.8863 53.422 17.8863C52.1522 17.8863 51.1999 17.5689 50.4063 16.7753C49.6127 15.9817 49.2953 14.8706 49.2953 13.4422V8.36317H47.0732V6.1411H49.2953V2.64929H51.8348V6.1411H56.1202V8.52189H56.2789ZM63.8974 5.98238C64.691 5.98238 65.4846 6.1411 66.1195 6.45854C66.7544 6.77598 67.3893 7.09342 67.8654 7.72829C68.3416 8.20445 68.659 8.83933 68.9765 9.63292C69.2939 10.4265 69.4526 11.2201 69.4526 12.0137C69.4526 12.1724 69.4526 12.3311 69.4526 12.4899C69.4526 12.6486 69.4526 12.8073 69.4526 12.966H61.0405C61.0405 13.4422 61.1992 13.9183 61.5167 14.2358C61.6754 14.5532 61.9928 14.8707 62.3103 15.1881C62.6277 15.3468 62.9451 15.6642 63.2626 15.6642C63.58 15.823 64.0562 15.823 64.3736 15.823C65.0085 15.823 65.4846 15.6642 66.1195 15.5055C66.7544 15.3468 67.2306 15.0294 67.7067 14.5532L68.9765 16.2991C68.3416 16.934 67.548 17.2514 66.7544 17.5689C65.9608 17.7276 65.1672 17.8863 64.2149 17.8863C63.4213 17.8863 62.6277 17.7276 61.8341 17.4102C61.1992 17.0927 60.5644 16.7753 59.9295 16.1404C59.4533 15.6642 58.9772 15.0294 58.6597 14.2358C58.3423 13.4422 58.1836 12.6486 58.1836 11.855C58.1836 10.9027 58.3423 10.1091 58.6597 9.4742C58.9772 8.68061 59.2946 8.04573 59.7708 7.56957C60.2469 7.09342 60.8818 6.61726 61.5167 6.29982C62.3103 6.1411 63.1039 5.98238 63.8974 5.98238ZM63.8974 8.20445C63.4213 8.20445 63.1039 8.20445 62.7864 8.36317C62.469 8.52189 62.1516 8.68061 61.8341 8.99805C61.5167 9.31548 61.3579 9.4742 61.1992 9.95036C61.0405 10.2678 60.8818 10.744 60.8818 11.0614H66.7544C66.5957 10.1091 66.2782 9.4742 65.8021 8.99805C65.3259 8.36317 64.691 8.20445 63.8974 8.20445ZM77.8647 5.98238C78.1822 5.98238 78.6583 5.98238 78.817 5.98238C79.1345 5.98238 79.4519 6.1411 79.7694 6.29982L79.1345 8.68061C78.817 8.52189 78.4996 8.52189 78.1822 8.36317C77.8647 8.36317 77.5473 8.20445 77.2299 8.20445C76.9124 8.20445 76.4363 8.20445 76.1188 8.36317C75.8014 8.52189 75.4839 8.68061 75.3252 8.99805C75.1665 9.31548 74.8491 9.63292 74.6904 9.95036C74.5316 10.2678 74.5316 10.744 74.5316 11.2201V17.4102H71.9921V5.98238H74.3729V7.25214C74.6903 6.77598 75.1665 6.29982 75.8014 5.98238C76.595 6.1411 77.2299 5.98238 77.8647 5.98238ZM86.4356 5.98238C87.2292 5.98238 88.0228 6.1411 88.8163 6.45854C89.6099 6.77598 90.2448 7.25214 90.721 7.88701L89.1338 9.63292C88.6576 9.31548 88.3402 8.99804 87.864 8.68061C87.3879 8.52189 86.9117 8.36317 86.4356 8.36317C85.9594 8.36317 85.4832 8.52189 85.1658 8.68061C84.6897 8.83933 84.3722 9.15676 84.0548 9.4742C83.7373 9.79164 83.5786 10.1091 83.4199 10.5852C83.2612 11.0614 83.1025 11.5376 83.1025 12.0137C83.1025 12.4899 83.2612 12.966 83.4199 13.4422C83.5786 13.9183 83.8961 14.2358 84.0548 14.5532C84.3722 14.8707 84.6897 15.1881 85.1658 15.3468C85.642 15.5055 85.9594 15.6642 86.4356 15.6642C86.9117 15.6642 87.5466 15.5055 88.0228 15.3468C88.4989 15.1881 88.9751 14.8707 89.2925 14.5532L90.8797 16.2991C90.4035 16.934 89.7687 17.4102 88.9751 17.7276C88.1815 18.045 87.3879 18.2037 86.5943 18.2037C85.642 18.2037 84.8484 18.045 84.2135 17.7276C83.4199 17.4102 82.785 16.934 82.3089 16.4578C81.8327 15.9817 81.3566 15.3468 81.0391 14.5532C80.7217 13.7596 80.563 12.966 80.563 12.1724C80.563 11.3788 80.7217 10.5852 81.0391 9.79164C81.3566 8.99805 81.674 8.36317 82.3089 7.88701C82.785 7.41085 83.4199 6.9347 84.2135 6.61726C84.6897 6.1411 85.4833 5.98238 86.4356 5.98238ZM103.895 17.7276H101.355V16.2991C101.038 16.7753 100.403 17.2514 99.9267 17.5689C99.2918 17.8863 98.6569 18.045 97.8633 18.045C97.0697 18.045 96.2761 17.8863 95.6413 17.5689C95.0064 17.2514 94.3715 16.934 93.8954 16.2991C93.4192 15.823 92.943 15.1881 92.6256 14.3945C92.3082 13.6009 92.1494 12.8073 92.1494 12.0137C92.1494 11.2201 92.3082 10.2678 92.6256 9.63292C92.943 8.83933 93.2605 8.20445 93.8954 7.72829C94.3715 7.25214 95.0064 6.77598 95.6413 6.45854C96.2761 6.1411 97.0697 5.98238 97.8633 5.98238C98.6569 5.98238 99.4505 6.1411 99.9267 6.45854C100.562 6.77598 101.038 7.09342 101.355 7.72829V6.29982H103.895V17.7276ZM98.1808 8.36317C97.7046 8.36317 97.2285 8.52189 96.7523 8.68061C96.2761 8.83933 95.9587 9.15676 95.6413 9.4742C95.3238 9.79164 95.1651 10.1091 95.0064 10.5852C94.8477 11.0614 94.8477 11.5376 94.8477 12.0137C94.8477 12.4899 95.0064 12.966 95.0064 13.4422C95.1651 13.9183 95.3238 14.2358 95.6413 14.5532C95.9587 14.8707 96.2761 15.1881 96.7523 15.3468C97.2285 15.5055 97.7046 15.6642 98.1808 15.6642C98.6569 15.6642 99.1331 15.5055 99.6092 15.3468C100.085 15.1881 100.403 14.8707 100.72 14.5532C101.038 14.2358 101.196 13.9183 101.355 13.4422C101.514 12.966 101.673 12.4899 101.673 12.0137C101.673 11.5376 101.514 11.0614 101.355 10.5852C101.196 10.1091 100.879 9.79164 100.72 9.4742C100.403 9.15676 100.085 8.83933 99.6092 8.68061C99.1331 8.36317 98.6569 8.36317 98.1808 8.36317ZM113.259 5.98238C113.577 5.98238 114.053 5.98238 114.211 5.98238C114.529 5.98238 114.846 6.1411 115.164 6.29982L114.529 8.68061C114.211 8.52189 113.894 8.52189 113.577 8.36317C113.259 8.36317 112.942 8.20445 112.624 8.20445C112.307 8.20445 111.831 8.20445 111.513 8.36317C111.196 8.52189 110.878 8.68061 110.72 8.99805C110.561 9.31548 110.243 9.63292 110.085 9.95036C109.926 10.2678 109.926 10.744 109.926 11.2201V17.4102H107.386V5.98238H109.767V7.25214C110.085 6.77598 110.561 6.29982 111.196 5.98238C111.989 6.1411 112.624 5.98238 113.259 5.98238ZM121.512 5.98238C122.306 5.98238 123.1 6.1411 123.576 6.45854C124.211 6.77598 124.687 7.09342 125.004 7.72829V0.585938H127.544V17.7276H125.004V16.2991C124.687 16.7753 124.052 17.2514 123.576 17.5689C122.941 17.8863 122.306 18.045 121.512 18.045C120.719 18.045 119.925 17.8863 119.29 17.5689C118.656 17.2514 118.021 16.934 117.544 16.2991C117.068 15.823 116.592 15.1881 116.275 14.3945C115.957 13.6009 115.799 12.8073 115.799 12.0137C115.799 11.2201 115.957 10.2678 116.275 9.63292C116.592 8.83933 116.91 8.20445 117.544 7.72829C118.021 7.25214 118.656 6.77598 119.29 6.45854C119.925 6.1411 120.719 5.98238 121.512 5.98238ZM130.401 16.6166C130.559 16.6166 130.559 16.6166 130.718 16.6166C130.877 16.6166 130.877 16.7753 130.877 16.7753L131.036 16.934C131.036 17.0927 131.036 17.0927 131.036 17.2514C131.036 17.4102 131.036 17.4102 131.036 17.5689C131.036 17.7276 130.877 17.7276 130.877 17.7276L130.718 17.8863C130.559 17.8863 130.559 17.8863 130.401 17.8863C130.242 17.8863 130.242 17.8863 130.083 17.8863C129.925 17.8863 129.925 17.7276 129.925 17.7276L129.766 17.5689C129.766 17.4102 129.766 17.4102 129.766 17.2514C129.766 17.0927 129.766 17.0927 129.766 16.934C129.766 16.7753 129.925 16.7753 129.925 16.7753L130.083 16.6166C130.242 16.6166 130.242 16.6166 130.401 16.6166ZM130.401 17.8863H130.559C130.559 17.8863 130.718 17.8863 130.718 17.7276L130.877 17.5689V17.2514C130.877 17.2514 130.877 17.0927 130.718 17.0927L130.559 16.934H130.401H130.242C130.242 16.934 130.083 16.934 130.083 17.0927L129.925 17.2514V17.5689C129.925 17.5689 129.925 17.7276 130.083 17.7276L130.242 17.8863H130.401ZM130.401 16.934C130.559 16.934 130.559 16.934 130.559 16.934V17.2514H130.401L130.559 17.5689H130.401L130.242 17.2514V17.5689H130.083V16.934H130.401ZM130.401 17.2514C130.401 17.2514 130.401 17.2514 130.559 17.2514C130.559 17.2514 130.559 17.2514 130.401 17.2514ZM121.83 8.36317C121.354 8.36317 120.878 8.52189 120.401 8.68061C119.925 8.83933 119.608 9.15676 119.29 9.4742C118.973 9.79164 118.814 10.1091 118.656 10.5852C118.338 11.0614 118.338 11.5376 118.338 12.0137C118.338 12.4899 118.497 12.966 118.497 13.4422C118.656 13.9183 118.814 14.2358 119.132 14.5532C119.449 14.8707 119.767 15.1881 120.243 15.3468C120.719 15.5055 121.195 15.6642 121.671 15.6642C122.147 15.6642 122.623 15.5055 123.1 15.3468C123.576 15.1881 123.893 14.8707 124.211 14.5532C124.528 14.2358 124.687 13.9183 124.846 13.4422C125.004 12.966 125.163 12.4899 125.163 12.0137C125.163 11.5376 125.004 11.0614 124.846 10.5852C124.687 10.1091 124.369 9.79164 124.211 9.4742C123.893 9.15676 123.576 8.83933 123.1 8.68061C122.782 8.36317 122.306 8.36317 121.83 8.36317Z" fill="#E41522"/>
<path d="M12.6312 27.571C11.9963 27.0948 11.2027 26.7774 10.4091 26.6187C9.61553 26.3012 8.82194 26.3012 8.02834 26.3012C7.55219 26.3012 7.07603 26.3012 6.59987 26.4599C6.12372 26.6187 5.80628 26.7774 5.48884 26.9361C5.1714 27.0948 4.85396 27.4123 4.69524 27.7297C4.53652 28.0471 4.37781 28.3646 4.37781 28.682C4.37781 28.9995 4.37781 29.3169 4.53652 29.4756C4.69524 29.6343 4.85396 29.9518 5.1714 30.1105C5.48884 30.2692 5.80628 30.4279 6.28243 30.5866C6.75859 30.7454 7.23475 30.7454 7.71091 30.9041L8.82194 31.0628C9.45681 31.2215 10.0917 31.2215 10.7266 31.539C11.3614 31.6977 11.8376 32.0151 12.3138 32.3325C12.7899 32.65 13.2661 33.1261 13.4248 33.6023C13.7422 34.0785 13.9009 34.7133 13.9009 35.5069C13.9009 36.3005 13.7422 37.0941 13.4248 37.729C13.1074 38.3639 12.6312 38.84 11.9963 39.3162C11.3614 39.7923 10.7266 40.1098 9.93297 40.2685C9.13938 40.4272 8.34578 40.5859 7.39347 40.5859C6.91731 40.5859 6.28243 40.5859 5.64756 40.4272C5.01268 40.2685 4.53652 40.2685 3.90165 39.9511C3.26677 39.7923 2.79061 39.4749 2.31446 39.3162C1.8383 38.9987 1.36214 38.6813 0.885986 38.3639L2.31446 36.3005C2.6319 36.618 2.94933 36.7767 3.26677 36.9354C3.58421 37.0941 4.06037 37.4116 4.53652 37.5703C5.01268 37.729 5.48884 37.8877 5.965 37.8877C6.44115 38.0464 6.91731 38.0464 7.39347 38.0464C7.86963 38.0464 8.34578 38.0464 8.82194 37.8877C9.2981 37.729 9.61554 37.5703 9.93297 37.4116C10.2504 37.2528 10.5679 36.9354 10.7266 36.618C10.8853 36.3005 11.044 35.9831 11.044 35.6656C11.044 35.0308 10.7266 34.5546 10.0917 34.2372C9.45681 33.9197 8.5045 33.6023 7.39347 33.4436L6.59987 33.2849C5.965 33.1261 5.48884 33.1261 4.85396 32.8087C4.21909 32.65 3.74293 32.3326 3.26677 32.0151C2.79061 31.6977 2.47318 31.2215 2.15574 30.7454C1.8383 30.2692 1.67958 29.6343 1.67958 28.8407C1.67958 28.0471 1.8383 27.2535 2.15574 26.7774C2.47318 26.1425 2.94933 25.6663 3.58421 25.1902C4.21909 24.714 4.85396 24.3966 5.64756 24.2379C6.44115 24.0792 7.23475 23.9204 8.02834 23.9204C9.13938 23.9204 10.2504 24.0792 11.2027 24.3966C12.155 24.714 12.9486 25.1902 13.9009 25.6663L12.6312 27.571ZM21.5195 28.8407C22.3131 28.8407 22.9479 28.9994 23.5828 29.3169C24.2177 29.6343 24.6938 29.9518 25.17 30.4279C25.6462 30.9041 25.9636 31.539 26.281 32.1738C26.5985 32.8087 26.5985 33.6023 26.5985 34.5546C26.5985 34.7133 26.5985 34.8721 26.5985 35.0308C26.5985 35.1895 26.5985 35.3482 26.5985 35.5069H18.5038C18.5038 35.9831 18.6625 36.4592 18.98 36.7767C19.1387 37.0941 19.4561 37.4116 19.7736 37.5703C20.091 37.729 20.4084 37.8877 20.7259 38.0464C21.0433 38.2052 21.5195 38.2052 21.8369 38.2052C22.3131 38.2052 22.9479 38.0464 23.4241 37.8877C23.9002 37.729 24.5351 37.4116 25.0113 37.0941L26.281 38.84C25.6462 39.4749 24.8526 39.7923 24.2177 40.1098C23.4241 40.2685 22.6305 40.4272 21.8369 40.4272C21.0433 40.4272 20.2497 40.2685 19.6148 39.9511C18.98 39.6336 18.3451 39.3162 17.8689 38.84C17.3928 38.3639 16.9166 37.729 16.7579 37.0941C16.4405 36.4592 16.2817 35.6657 16.2817 34.7133C16.2817 33.9197 16.4405 33.1261 16.7579 32.3325C17.0753 31.6977 17.3928 31.0628 17.8689 30.4279C18.3451 29.9518 18.98 29.4756 19.6148 29.3169C19.9323 28.9994 20.5671 28.8407 21.5195 28.8407ZM21.3607 31.0628C20.8846 31.0628 20.5672 31.0628 20.2497 31.2215C19.9323 31.3802 19.6148 31.539 19.4561 31.8564C19.1387 32.1738 18.98 32.3326 18.8212 32.65C18.6625 32.9674 18.5038 33.2849 18.5038 33.761H24.2177C24.059 32.9674 23.7415 32.1738 23.2654 31.6977C22.7892 31.2215 22.1543 31.0628 21.3607 31.0628ZM34.0583 28.8407C34.8519 28.8407 35.6455 28.9994 36.2803 29.3169C36.9152 29.6343 37.5501 30.1105 38.0262 30.5866L36.4391 32.1738C36.1216 31.8564 35.6455 31.539 35.1693 31.3802C34.6931 31.2215 34.217 31.0628 33.7408 31.0628C33.2647 31.0628 32.7885 31.2215 32.4711 31.3802C31.9949 31.539 31.6775 31.8564 31.5188 32.1738C31.2013 32.4913 31.0426 32.8087 30.8839 33.2849C30.7252 33.761 30.5665 34.2372 30.5665 34.7133C30.5665 35.1895 30.7252 35.6656 30.8839 36.1418C31.0426 36.618 31.2013 36.9354 31.5188 37.2528C31.8362 37.5703 32.1536 37.729 32.4711 38.0464C32.7885 38.2052 33.2647 38.3639 33.7408 38.3639C34.217 38.3639 34.6931 38.2052 35.1693 38.0464C35.6455 37.8877 35.9629 37.5703 36.4391 37.2528L37.8675 38.84C37.3914 39.4749 36.7565 39.7923 36.1216 40.1098C35.4867 40.4272 34.6931 40.5859 33.8995 40.5859C33.106 40.5859 32.3124 40.4272 31.5188 40.1098C30.8839 39.7923 30.249 39.4749 29.7729 38.84C29.2967 38.3639 28.8205 37.729 28.6618 36.9354C28.3444 36.3005 28.1857 35.5069 28.1857 34.7133C28.1857 33.9197 28.3444 33.1261 28.6618 32.4913C28.9793 31.8564 29.2967 31.2215 29.7729 30.5866C30.249 30.1105 30.8839 29.6343 31.5188 29.3169C32.4711 28.9994 33.2647 28.8407 34.0583 28.8407ZM50.565 35.5069C50.565 36.3005 50.4063 37.0941 50.0889 37.729C49.7715 38.3639 49.454 38.84 48.9779 39.3162C48.5017 39.7923 48.0255 39.9511 47.3907 40.2685C46.7558 40.4272 46.1209 40.5859 45.486 40.5859C44.8512 40.5859 44.2163 40.4272 43.5814 40.2685C42.9465 40.1098 42.4704 39.7923 41.9942 39.3162C41.5181 38.9987 41.2006 38.3639 40.8832 37.729C40.5658 37.0941 40.407 36.3005 40.407 35.5069V29.1582H42.7878V35.1895C42.7878 35.6656 42.7878 36.1418 42.9465 36.4592C43.1053 36.7767 43.264 37.0941 43.5814 37.4116C43.8989 37.5703 44.0576 37.729 44.375 37.8877C44.6924 38.0464 45.0099 38.0464 45.486 38.0464C45.8035 38.0464 46.2796 38.0464 46.5971 37.8877C46.9145 37.729 47.2319 37.5703 47.3907 37.4116C47.7081 37.2528 47.8668 36.9354 48.0255 36.4592C48.1843 36.1418 48.1843 35.6656 48.1843 35.1895V29.1582H50.565V35.5069ZM59.2946 28.8407C59.612 28.8407 59.9295 28.8407 60.2469 28.8407C60.5644 28.8407 60.8818 28.9994 61.0405 28.9994L60.4056 31.3802C60.0882 31.2215 59.9295 31.2215 59.4533 31.0628C59.1359 31.0628 58.8184 30.9041 58.501 30.9041C58.1836 30.9041 57.7074 30.9041 57.39 31.0628C57.0725 31.2215 56.7551 31.3802 56.5964 31.6977C56.4377 32.0151 56.1202 32.3326 56.1202 32.65C55.9615 32.9674 55.9615 33.4436 55.9615 33.9197V39.9511H53.5807V28.9994H55.9615V30.2692C56.2789 29.793 56.7551 29.3169 57.39 29.1582C57.8661 28.9994 58.501 28.8407 59.2946 28.8407ZM67.2305 28.8407C68.0241 28.8407 68.659 28.9994 69.2939 29.3169C69.9288 29.6343 70.4049 29.9518 70.8811 30.4279C71.3572 30.9041 71.6747 31.539 71.9921 32.1738C72.3096 32.8087 72.3096 33.6023 72.3096 34.5546C72.3096 34.7133 72.3096 34.8721 72.3096 35.0308C72.3096 35.1895 72.3096 35.3482 72.3096 35.5069H64.3736C64.3736 35.9831 64.5323 36.4592 64.8498 36.7767C65.0085 37.0941 65.3259 37.4116 65.6434 37.5703C65.9608 37.729 66.2782 37.8877 66.5957 38.0464C66.9131 38.2052 67.3893 38.2052 67.7067 38.2052C68.1829 38.2052 68.8177 38.0464 69.2939 37.8877C69.7701 37.729 70.4049 37.4116 70.8811 37.0941L71.9921 38.84C71.3572 39.4749 70.5637 39.7923 69.9288 40.1098C69.1352 40.2685 68.3416 40.4272 67.548 40.4272C66.7544 40.4272 65.9608 40.2685 65.3259 39.9511C64.691 39.6336 64.0562 39.3162 63.58 38.84C63.1039 38.3639 62.6277 37.729 62.469 37.0941C62.1515 36.4592 61.9928 35.6657 61.9928 34.7133C61.9928 33.9197 62.1515 33.1261 62.469 32.3325C62.7864 31.6977 63.1039 31.0628 63.58 30.4279C64.0562 29.9518 64.691 29.4756 65.3259 29.3169C65.6434 28.9994 66.437 28.8407 67.2305 28.8407ZM67.2305 31.0628C66.7544 31.0628 66.437 31.0628 66.1195 31.2215C65.8021 31.3802 65.4846 31.539 65.3259 31.8564C65.0085 32.1738 64.8498 32.3326 64.691 32.65C64.5323 32.9674 64.3736 33.2849 64.3736 33.761H70.0875C69.9288 32.9674 69.6113 32.1738 69.1352 31.6977C68.659 31.2215 68.0241 31.0628 67.2305 31.0628ZM82.785 23.7617C83.4199 23.7617 84.2135 23.7617 84.8484 23.9204C85.4832 24.0792 86.1181 24.2379 86.753 24.5553C87.3879 24.8728 87.864 25.1902 88.3402 25.6663C88.8163 26.1425 89.1338 26.6187 89.4512 27.0948L87.2291 28.5233C86.753 27.7297 86.1181 27.2535 85.3245 26.7774C84.5309 26.3012 83.7373 26.1425 82.785 26.1425C81.9914 26.1425 81.1978 26.3012 80.563 26.6187C79.9281 26.9361 79.2932 27.2535 78.817 27.8884C78.3409 28.3646 77.8647 28.9994 77.706 29.793C77.3886 30.5866 77.2298 31.2215 77.2298 32.1738C77.2298 32.9674 77.3886 33.761 77.706 34.5546C78.0234 35.3482 78.3409 35.8244 78.817 36.4592C79.2932 36.9354 79.9281 37.4116 80.563 37.5703C81.1978 37.8877 81.9914 38.0464 82.785 38.0464C83.7373 38.0464 84.5309 37.8877 85.3245 37.4116C86.1181 36.9354 86.753 36.4592 87.2291 35.6656L89.2925 37.2528C88.9751 37.729 88.4989 38.2052 88.0227 38.6813C87.5466 39.1575 87.0704 39.4749 86.4356 39.6336C85.8007 39.9511 85.3245 40.1098 84.6896 40.2685C84.0548 40.4272 83.4199 40.4272 82.6263 40.4272C81.3565 40.4272 80.2455 40.2685 79.2932 39.7923C78.3409 39.3162 77.3886 38.84 76.595 38.0464C75.8014 37.2528 75.3252 36.4592 74.8491 35.3482C74.3729 34.3959 74.2142 33.2849 74.2142 32.0151C74.2142 30.7454 74.3729 29.6343 74.8491 28.682C75.3252 27.7297 75.8014 26.7774 76.595 25.9838C77.3886 25.1902 78.1822 24.714 79.2932 24.2379C80.4042 24.0792 81.5153 23.7617 82.785 23.7617ZM96.911 28.8407C97.7046 28.8407 98.4982 28.9994 99.2918 29.3169C100.085 29.6343 100.562 29.9518 101.196 30.5866C101.673 31.0628 102.149 31.6977 102.466 32.4913C102.784 33.1261 102.942 33.9197 102.942 34.7133C102.942 35.5069 102.784 36.3005 102.466 36.9354C102.149 37.5703 101.831 38.2052 101.196 38.84C100.72 39.3162 100.085 39.7923 99.2918 40.1098C98.4982 40.4272 97.8633 40.5859 96.911 40.5859C96.1174 40.5859 95.3238 40.4272 94.5302 40.1098C93.7366 39.7923 93.2605 39.4749 92.6256 38.84C92.1494 38.3639 91.6733 37.729 91.3558 36.9354C91.0384 36.3005 90.8797 35.5069 90.8797 34.7133C90.8797 33.9197 91.0384 33.1261 91.3558 32.4913C91.6733 31.8564 91.9907 31.2215 92.6256 30.5866C93.1018 30.1105 93.7366 29.6343 94.5302 29.3169C95.3238 28.9994 96.1174 28.8407 96.911 28.8407ZM96.911 31.0628C96.4349 31.0628 95.9587 31.2215 95.4825 31.3802C95.0064 31.539 94.6889 31.8564 94.3715 32.1738C94.0541 32.4913 93.8954 32.8087 93.5779 33.2849C93.4192 33.761 93.2605 34.2372 93.2605 34.7133C93.2605 35.1895 93.4192 35.6656 93.5779 36.1418C93.7366 36.618 94.0541 36.9354 94.3715 37.2528C94.6889 37.5703 95.0064 37.729 95.4825 38.0464C95.9587 38.2052 96.4349 38.3639 96.911 38.3639C97.3872 38.3639 97.8633 38.2052 98.3395 38.0464C98.8156 37.8877 99.1331 37.5703 99.4505 37.2528C99.768 36.9354 99.9267 36.618 100.244 36.1418C100.403 35.6656 100.562 35.1895 100.562 34.7133C100.562 34.2372 100.403 33.761 100.244 33.2849C100.085 32.8087 99.768 32.4913 99.4505 32.1738C99.1331 31.8564 98.8156 31.6977 98.3395 31.3802C97.8633 31.2215 97.3872 31.0628 96.911 31.0628ZM110.085 28.8407C110.878 28.8407 111.513 28.9994 112.148 29.3169C112.783 29.6343 113.259 29.9518 113.577 30.4279V23.603H115.957V40.1098H113.577V38.84C113.259 39.3162 112.783 39.7923 112.148 39.9511C111.513 40.2685 110.878 40.4272 110.085 40.4272C109.291 40.4272 108.656 40.2685 107.863 39.9511C107.228 39.6336 106.593 39.3162 106.117 38.6813C105.641 38.2052 105.164 37.5703 105.006 36.7767C104.688 36.1418 104.53 35.3482 104.53 34.3959C104.53 33.6023 104.688 32.8087 105.006 32.0151C105.323 31.3802 105.641 30.7454 106.117 30.1105C106.593 29.6343 107.228 29.1582 107.863 28.8407C108.498 28.9995 109.291 28.8407 110.085 28.8407ZM110.243 31.0628C109.767 31.0628 109.291 31.2215 108.815 31.3802C108.339 31.539 108.021 31.8564 107.704 32.1738C107.386 32.4913 107.228 32.8087 107.069 33.2849C106.91 33.761 106.91 34.2372 106.91 34.7133C106.91 35.1895 106.91 35.6656 107.069 36.1418C107.228 36.618 107.386 36.9354 107.704 37.2528C108.021 37.5703 108.339 37.8877 108.815 38.0464C109.291 38.2052 109.609 38.3639 110.243 38.3639C110.72 38.3639 111.196 38.2052 111.672 38.0464C112.148 37.8877 112.465 37.5703 112.783 37.2528C113.1 36.9354 113.259 36.618 113.418 36.1418C113.577 35.6656 113.735 35.1895 113.735 34.7133C113.735 34.2372 113.577 33.761 113.418 33.2849C113.259 32.8087 113.1 32.4913 112.783 32.1738C112.465 31.8564 112.148 31.539 111.672 31.3802C111.196 31.2215 110.878 31.0628 110.243 31.0628ZM123.893 28.8407C124.687 28.8407 125.322 28.9994 125.957 29.3169C126.591 29.6343 127.068 29.9518 127.544 30.4279C128.02 30.9041 128.337 31.539 128.655 32.1738C128.972 32.8087 128.972 33.6023 128.972 34.5546C128.972 34.7133 128.972 34.8721 128.972 35.0308C128.972 35.1895 128.972 35.3482 128.972 35.5069H120.878C120.878 35.9831 121.036 36.4592 121.354 36.7767C121.512 37.0941 121.83 37.4116 122.147 37.5703C122.465 37.729 122.782 37.8877 123.1 38.0464C123.417 38.2052 123.893 38.2052 124.211 38.2052C124.687 38.2052 125.322 38.0464 125.798 37.8877C126.274 37.729 126.909 37.4116 127.385 37.0941L128.496 38.84C127.861 39.4749 127.068 39.7923 126.433 40.1098C125.639 40.2685 124.846 40.4272 124.052 40.4272C123.258 40.4272 122.465 40.2685 121.83 39.9511C121.195 39.6336 120.56 39.3162 120.084 38.84C119.608 38.3639 119.132 37.729 118.973 37.0941C118.656 36.4592 118.497 35.6657 118.497 34.7133C118.497 33.9197 118.656 33.1261 118.973 32.3325C119.29 31.6977 119.608 31.0628 120.084 30.4279C120.56 29.9518 121.195 29.4756 121.83 29.3169C122.306 28.9994 123.1 28.8407 123.893 28.8407ZM130.083 40.1098V39.6336H130.242V39.4749H129.607V39.6336H129.766L130.083 40.1098ZM131.194 40.1098V39.4749H131.036L130.877 39.9511L130.718 39.4749H130.559V40.1098H130.718V39.6336L130.877 40.1098H131.036L131.194 39.6336V40.1098ZM123.735 31.0628C123.258 31.0628 122.941 31.0628 122.623 31.2215C122.306 31.3802 121.989 31.539 121.83 31.8564C121.512 32.1738 121.354 32.3326 121.195 32.65C121.036 32.9674 120.878 33.2849 120.878 33.761H126.591C126.433 32.9674 126.115 32.1738 125.639 31.6977C125.163 31.2215 124.528 31.0628 123.735 31.0628Z" fill="#F59E1F"/>
</svg>
