<svg width="50" height="50" viewBox="0 0 50 50" fill="none" xmlns="http://www.w3.org/2000/svg">
<path d="M25 42.2563C27.2115 44.2356 30.1319 45.4392 33.3333 45.4392C40.2369 45.4392 45.8333 39.8428 45.8333 32.9392C45.8333 27.1147 41.8497 22.2206 36.4583 20.833" stroke="#074784" stroke-width="2"/>
<path d="M18.75 5.83927C20.5886 4.77571 22.7232 4.16699 25 4.16699C31.9036 4.16699 37.5 9.76343 37.5 16.667C37.5 23.5706 31.9036 29.167 25 29.167C18.0964 29.167 12.5 23.5706 12.5 16.667C12.5 15.206 12.7506 13.8036 13.2113 12.5003" stroke="#074784" stroke-width="2" stroke-linecap="round"/>
<path d="M16.6665 45.8337L16.6665 44.8337L16.6665 45.8337ZM4.1665 33.3337H3.1665H4.1665ZM4.97318 40.0845C5.24972 40.5625 5.86145 40.7259 6.33951 40.4493C6.81757 40.1728 6.98093 39.5611 6.70439 39.083L4.97318 40.0845ZM12.8331 44.1796C12.3124 43.9956 11.741 44.2685 11.557 44.7892C11.373 45.3099 11.6459 45.8813 12.1666 46.0653L12.8331 44.1796ZM28.1665 33.3337C28.1665 39.685 23.0178 44.8337 16.6665 44.8337V46.8337C24.1223 46.8337 30.1665 40.7896 30.1665 33.3337H28.1665ZM5.1665 33.3337C5.1665 27.9766 8.83052 23.4727 13.7908 22.196L13.2922 20.2591C7.46982 21.7577 3.1665 27.0419 3.1665 33.3337H5.1665ZM27.4123 29.2281C27.8992 30.5018 28.1665 31.8854 28.1665 33.3337H30.1665C30.1665 31.6375 29.8532 30.0121 29.2804 28.5138L27.4123 29.2281ZM6.70439 39.083C5.7265 37.3925 5.1665 35.43 5.1665 33.3337H3.1665C3.1665 35.791 3.82394 38.0978 4.97318 40.0845L6.70439 39.083ZM16.6665 44.8337C15.3206 44.8337 14.0308 44.6029 12.8331 44.1796L12.1666 46.0653C13.5754 46.5632 15.0904 46.8337 16.6665 46.8337L16.6665 44.8337Z" fill="#074784"/>
</svg>
