<svg width="50" height="50" viewBox="0 0 50 50" fill="none" xmlns="http://www.w3.org/2000/svg">
<path d="M33.3787 18.034C33.7714 17.6457 33.7749 17.0125 33.3865 16.6198C32.9982 16.2272 32.365 16.2236 31.9723 16.612L33.3787 18.034ZM21.8184 29.4669L33.3787 18.034L31.9723 16.612L20.4121 28.0448L21.8184 29.4669Z" fill="#074784"/>
<path d="M38.8242 32.6465C36.3029 40.2102 35.0423 43.9922 33.1936 45.0669C31.435 46.0893 29.263 46.0893 27.5043 45.0669C25.6557 43.9922 24.3951 40.2102 21.8738 32.6465C21.469 31.432 21.2666 30.8247 20.9268 30.3171C20.5975 29.8252 20.1749 29.4027 19.683 29.0734C19.1755 28.7336 18.5682 28.5312 17.3537 28.1264C9.78991 25.6051 6.008 24.3444 4.93329 22.4958C3.91091 20.7372 3.91091 18.5652 4.93329 16.8065C6.008 14.9579 9.78991 13.6973 17.3537 11.176M41.7201 23.9587L42.4001 21.9187C45.524 12.547 47.0859 7.8612 44.6124 5.38773C42.139 2.91425 37.4531 4.47619 28.0815 7.60007L25.8807 8.33366" stroke="#074784" stroke-width="2" stroke-linecap="round"/>
</svg>
