<svg width="50" height="50" viewBox="0 0 50 50" fill="none" xmlns="http://www.w3.org/2000/svg">
<path d="M25 4.16699V8.33366" stroke="#074784" stroke-width="2" stroke-linecap="round"/>
<path d="M25 41.667V45.8337" stroke="#074784" stroke-width="2" stroke-linecap="round"/>
<path d="M4.1665 25L8.33317 25" stroke="#074784" stroke-width="2" stroke-linecap="round"/>
<path d="M41.6665 25L45.8332 25" stroke="#074784" stroke-width="2" stroke-linecap="round"/>
<path d="M12.5 37.5L13.2147 36.7853" stroke="#074784" stroke-width="2" stroke-linecap="round"/>
<path d="M36.7852 13.2148L37.5003 12.4997" stroke="#074784" stroke-width="2" stroke-linecap="round"/>
<path d="M37.4995 37.5L36.7848 36.7853" stroke="#074784" stroke-width="2" stroke-linecap="round"/>
<path d="M13.2153 13.2148L12.5002 12.4997" stroke="#074784" stroke-width="2" stroke-linecap="round"/>
<path d="M31.8029 30.473C32.067 33.1982 32.199 34.5608 31.4011 35.1666C30.6031 35.7723 29.4036 35.22 27.0047 34.1155L26.384 33.8297C25.7023 33.5158 25.3615 33.3589 25.0002 33.3589C24.6389 33.3589 24.298 33.5158 23.6163 33.8297L22.9957 34.1155C20.5967 35.22 19.3972 35.7723 18.5993 35.1666C17.8013 34.5608 17.9334 33.1982 18.1975 30.473L18.2658 29.768C18.3408 28.9935 18.3783 28.6063 18.2667 28.2473C18.155 27.8883 17.9069 27.598 17.4105 27.0176L16.9586 26.4892C15.2119 24.4466 14.3385 23.4253 14.6433 22.4452C14.8641 21.7352 15.5972 21.3874 16.9586 21.0293M22.0347 18.1334C23.3541 15.7665 24.0138 14.583 25.0002 14.583C25.9865 14.583 26.6462 15.7665 27.9656 18.1334L28.307 18.7458C28.6819 19.4184 28.8694 19.7547 29.1617 19.9766C29.454 20.1985 29.818 20.2808 30.5461 20.4456L31.209 20.5955C33.7711 21.1753 35.0522 21.4651 35.357 22.4452C35.577 23.1525 35.1834 23.8812 34.2908 24.9997" stroke="#074784" stroke-width="2" stroke-linecap="round"/>
</svg>
