<svg width="50" height="50" viewBox="0 0 50 50" fill="none" xmlns="http://www.w3.org/2000/svg">
<circle cx="20.8333" cy="12.5003" r="8.33333" stroke="#074784" stroke-width="2"/>
<path d="M37.5895 25.7619L38.181 24.9557H38.181L37.5895 25.7619ZM39.5835 18.1073L38.8919 18.8296C39.2786 19.1999 39.8884 19.1999 40.2751 18.8296L39.5835 18.1073ZM41.5775 25.762L40.986 24.9557H40.986L41.5775 25.762ZM39.5835 26.7244L39.5835 27.7244H39.5835L39.5835 26.7244ZM38.181 24.9557C37.2945 24.3052 36.2975 23.4788 35.5319 22.5935C34.7402 21.6781 34.3335 20.8571 34.3335 20.2018H32.3335C32.3335 21.5975 33.1402 22.8855 34.0192 23.9018C34.9243 24.9484 36.0552 25.8765 36.9979 26.5682L38.181 24.9557ZM34.3335 20.2018C34.3335 18.8063 34.993 18.0412 35.7347 17.7812C36.5043 17.5114 37.6849 17.6739 38.8919 18.8296L40.2751 17.385C38.6697 15.8478 36.7253 15.3147 35.073 15.8939C33.3928 16.4829 32.3335 18.1115 32.3335 20.2018H34.3335ZM42.1691 26.5682C43.1118 25.8766 44.2427 24.9484 45.1478 23.9018C46.0268 22.8855 46.8335 21.5975 46.8335 20.2018H44.8335C44.8335 20.8571 44.4268 21.6781 43.6351 22.5936C42.8695 23.4788 41.8725 24.3052 40.986 24.9557L42.1691 26.5682ZM46.8335 20.2018C46.8335 18.1115 45.7742 16.4828 44.094 15.8939C42.4417 15.3147 40.4973 15.8478 38.8919 17.385L40.2751 18.8296C41.4821 17.6739 42.6627 17.5114 43.4323 17.7812C44.174 18.0412 44.8335 18.8063 44.8335 20.2018H46.8335ZM36.9979 26.5682C37.8042 27.1598 38.5133 27.7244 39.5835 27.7244L39.5835 25.7244C39.289 25.7244 39.1237 25.6473 38.181 24.9557L36.9979 26.5682ZM40.986 24.9557C40.0433 25.6473 39.878 25.7244 39.5835 25.7244L39.5835 27.7244C40.6537 27.7244 41.3628 27.1598 42.1691 26.5682L40.986 24.9557Z" fill="#074784"/>
<path d="M37.4946 37.4997C37.4998 37.1577 37.4998 36.8101 37.4998 36.458C37.4998 31.2803 30.0379 27.083 20.8332 27.083C11.6284 27.083 4.1665 31.2803 4.1665 36.458C4.1665 41.6357 4.1665 45.833 20.8332 45.833C25.4811 45.833 28.8328 45.5066 31.2498 44.9235" stroke="#074784" stroke-width="2" stroke-linecap="round"/>
</svg>
