<svg width="50" height="50" viewBox="0 0 50 50" fill="none" xmlns="http://www.w3.org/2000/svg">
<path d="M31.8091 37.9767C27.6854 43.556 25.6235 46.3457 23.6998 45.7561C21.7762 45.1666 21.7762 41.7451 21.7763 34.902L21.7763 34.2571C21.7764 31.789 21.7764 30.5549 20.9877 29.7808L20.946 29.7407C20.1404 28.983 18.856 28.983 16.2871 28.983C11.6645 28.983 9.35318 28.983 8.57203 27.581C8.5591 27.5578 8.54652 27.5344 8.53432 27.5108C7.79692 26.0872 9.13517 24.2765 11.8117 20.6553L18.1911 12.0239C22.3148 6.44465 24.3766 3.65501 26.3003 4.24452C28.224 4.83403 28.224 8.25552 28.224 15.0985V15.7437C28.224 18.2118 28.224 19.4459 29.0126 20.2199L29.0543 20.26C29.86 21.0177 31.1444 21.0177 33.7131 21.0177C38.3358 21.0177 40.6472 21.0178 41.4283 22.4197C41.4412 22.4429 41.4538 22.4663 41.466 22.4899C42.2034 23.9136 40.8651 25.7242 38.1886 29.3455" stroke="#074784" stroke-width="2" stroke-linecap="round"/>
</svg>
