<svg width="50" height="50" viewBox="0 0 50 50" fill="none" xmlns="http://www.w3.org/2000/svg">
<path d="M38.4246 39.8382L39.1317 40.5453V40.5453L38.4246 39.8382ZM21.467 39.8382L22.1741 39.1311L21.467 39.8382ZM39.8377 21.4675L39.1306 22.1746L39.8377 21.4675ZM39.8377 38.4251L39.1306 37.718L39.8377 38.4251ZM45.8332 29.9463H46.8332H45.8332ZM11.5751 10.1624L12.2822 10.8695H12.2822L11.5751 10.1624ZM28.5327 10.1624L29.2398 9.45531L28.5327 10.1624ZM20.0539 4.16699V5.16699V4.16699ZM10.1619 11.5755L9.45482 10.8684L10.1619 11.5755ZM10.1619 28.5332L9.45482 29.2403L10.1619 28.5332ZM4.1665 20.0544H3.1665H4.1665ZM19.3478 12.2828C19.7383 11.8923 19.7383 11.2591 19.3478 10.8686C18.9572 10.4781 18.3241 10.4781 17.9335 10.8686L19.3478 12.2828ZM10.8679 17.9343C10.4773 18.3248 10.4773 18.958 10.8679 19.3485C11.2584 19.739 11.8916 19.739 12.2821 19.3485L10.8679 17.9343ZM37.7186 17.9341C37.3281 17.5436 36.6949 17.5436 36.3044 17.9341C35.9139 18.3246 35.9139 18.9578 36.3044 19.3483L37.7186 17.9341ZM30.6518 13.6958C31.0424 14.0863 31.6755 14.0863 32.066 13.6958C32.4566 13.3053 32.4566 12.6721 32.0661 12.2816L30.6518 13.6958ZM10.869 12.2827L12.2822 10.8695L10.868 9.45531L9.45482 10.8684L10.869 12.2827ZM39.1306 37.718L37.7175 39.1311L39.1317 40.5453L40.5449 39.1322L39.1306 37.718ZM22.1741 39.1311L10.869 27.8261L9.45482 29.2403L20.7599 40.5453L22.1741 39.1311ZM37.7175 39.1311C35.699 41.1496 34.2548 42.5908 33.011 43.5398C31.7903 44.4712 30.8809 44.8337 29.9458 44.8337V46.8337C31.4941 46.8337 32.8256 46.1969 34.2242 45.1298C35.5997 44.0803 37.1532 42.5238 39.1317 40.5453L37.7175 39.1311ZM20.7599 40.5453C22.7384 42.5238 24.2919 44.0803 25.6674 45.1298C27.066 46.1969 28.3976 46.8337 29.9458 46.8337V44.8337C29.0107 44.8337 28.1013 44.4712 26.8806 43.5398C25.6368 42.5908 24.1926 41.1496 22.1741 39.1311L20.7599 40.5453ZM39.1306 22.1746C41.1491 24.1931 42.5903 25.6373 43.5393 26.8811C44.4707 28.1018 44.8332 29.0112 44.8332 29.9463H46.8332C46.8332 28.398 46.1964 27.0665 45.1293 25.6679C44.0798 24.2924 42.5233 22.7389 40.5449 20.7604L39.1306 22.1746ZM40.5449 39.1322C42.5233 37.1537 44.0798 35.6002 45.1293 34.2247C46.1964 32.8261 46.8332 31.4945 46.8332 29.9463H44.8332C44.8332 30.8814 44.4707 31.7908 43.5393 33.0115C42.5903 34.2553 41.1491 35.6995 39.1306 37.718L40.5449 39.1322ZM12.2822 10.8695C14.3006 8.85106 15.7448 7.40984 16.9886 6.46087C18.2093 5.5295 19.1187 5.16699 20.0539 5.16699V3.16699C18.5056 3.16699 17.1741 3.80372 15.7755 4.87083C14.3999 5.92032 12.8464 7.47682 10.868 9.45531L12.2822 10.8695ZM29.2398 9.45531C27.2613 7.47682 25.7078 5.92032 24.3323 4.87083C22.9337 3.80372 21.6021 3.16699 20.0539 3.16699V5.16699C20.989 5.16699 21.8984 5.5295 23.1191 6.46087C24.3629 7.40984 25.8071 8.85106 27.8256 10.8695L29.2398 9.45531ZM9.45482 10.8684C7.47633 12.8469 5.91984 14.4004 4.87034 15.776C3.80323 17.1746 3.1665 18.5061 3.1665 20.0544H5.1665C5.1665 19.1192 5.52901 18.2098 6.46038 16.9891C7.40936 15.7453 8.85057 14.3011 10.869 12.2827L9.45482 10.8684ZM10.869 27.8261C8.85057 25.8076 7.40936 24.3634 6.46038 23.1196C5.52901 21.8989 5.1665 20.9895 5.1665 20.0544H3.1665C3.1665 21.6026 3.80323 22.9341 4.87034 24.3328C5.91984 25.7083 7.47633 27.2618 9.45482 29.2403L10.869 27.8261ZM17.9335 10.8686L10.8679 17.9343L12.2821 19.3485L19.3478 12.2828L17.9335 10.8686ZM34.1847 31.3606C34.9649 32.1407 34.9649 33.4056 34.1847 34.1858L35.5989 35.6C37.1601 34.0388 37.1601 31.5076 35.5989 29.9464L34.1847 31.3606ZM34.1847 34.1858C33.4046 34.9659 32.1397 34.9659 31.3595 34.1858L29.9453 35.6C31.5065 37.1612 34.0377 37.1612 35.5989 35.6L34.1847 34.1858ZM31.3595 34.1858C30.5794 33.4056 30.5794 32.1407 31.3595 31.3606L29.9453 29.9464C28.3841 31.5076 28.3841 34.0388 29.9453 35.6L31.3595 34.1858ZM31.3595 31.3606C32.1397 30.5804 33.4046 30.5804 34.1847 31.3606L35.5989 29.9464C34.0377 28.3851 31.5065 28.3851 29.9453 29.9464L31.3595 31.3606ZM36.3044 19.3483L39.1306 22.1746L40.5449 20.7604L37.7186 17.9341L36.3044 19.3483ZM27.8256 10.8695L30.6518 13.6958L32.0661 12.2816L29.2398 9.45531L27.8256 10.8695Z" fill="#074784"/>
<path d="M42.7082 14.5545L45.8332 16.667C45.8332 10.3864 41.3284 5.17273 35.4165 4.16699" stroke="#074784" stroke-width="2" stroke-linecap="round" stroke-linejoin="round"/>
<path d="M7.29183 35.4455L4.16683 33.333C4.16683 39.6136 8.67159 44.8273 14.5835 45.833" stroke="#074784" stroke-width="2" stroke-linecap="round" stroke-linejoin="round"/>
</svg>
