<svg width="50" height="50" viewBox="0 0 50 50" fill="none" xmlns="http://www.w3.org/2000/svg">
<path d="M15.7914 31.2664L16.4974 30.5582L15.7914 31.2664ZM15.7914 19.8561L15.0853 19.1479H15.0853L15.7914 19.8561ZM30.0971 34.1189L30.8032 34.8271L30.0971 34.1189ZM18.6525 34.1189L17.9465 34.8271L18.6525 34.1189ZM24.3748 38.1531V39.1531V38.1531ZM42.2781 21.9745L41.572 21.2664L42.2781 21.9745ZM31.3374 3.70333C30.8269 3.91414 30.584 4.49885 30.7948 5.00932C31.0056 5.51978 31.5903 5.76271 32.1008 5.5519L31.3374 3.70333ZM16.5159 31.9845C16.1248 32.3744 16.1239 33.0076 16.5138 33.3987C16.9037 33.7898 17.5369 33.7908 17.928 33.4008L16.5159 31.9845ZM22.2197 29.122C22.6108 28.732 22.6118 28.0989 22.2219 27.7078C21.8319 27.3167 21.1988 27.3157 20.8076 27.7056L22.2197 29.122ZM25.4559 37.9561L25.8016 38.8945L25.4559 37.9561ZM11.9784 24.3909L11.0506 24.0178L11.9784 24.3909ZM26.7478 10.3446C27.139 9.95469 27.1399 9.32152 26.75 8.93041C26.36 8.5393 25.7269 8.53835 25.3358 8.92829L26.7478 10.3446ZM41.572 21.2664L29.3911 33.4108L30.8032 34.8271L42.9841 22.6827L41.572 21.2664ZM19.3586 33.4108L16.4974 30.5582L15.0853 31.9745L17.9465 34.8271L19.3586 33.4108ZM36.5558 5.16699H37.7409V3.16699H36.5558V5.16699ZM44.8335 12.2353V13.4168H46.8335V12.2353H44.8335ZM37.7409 5.16699C39.6765 5.16699 41.028 5.1691 42.0479 5.30582C43.0394 5.43873 43.5666 5.68218 43.9423 6.05673L45.3544 4.6404C44.5449 3.83338 43.5258 3.48604 42.3136 3.32355C41.1299 3.16488 39.6202 3.16699 37.7409 3.16699V5.16699ZM46.8335 12.2353C46.8335 10.3619 46.8356 8.85599 46.6763 7.67508C46.5132 6.46509 46.1642 5.44783 45.3544 4.6404L43.9423 6.05673C44.3176 6.43087 44.5612 6.95525 44.6943 7.94236C44.8313 8.95855 44.8335 10.3052 44.8335 12.2353H46.8335ZM16.4974 30.5582C15.1286 29.1935 14.1748 28.2396 13.5508 27.4242C12.9444 26.6317 12.7451 26.0893 12.7451 25.5612H10.7451C10.7451 26.7042 11.2202 27.6696 11.9625 28.6396C12.6873 29.5867 13.7566 30.6498 15.0853 31.9745L16.4974 30.5582ZM17.9465 34.8271C19.2753 36.1519 20.3415 37.2179 21.2913 37.9404C22.2643 38.6806 23.2312 39.1531 24.3748 39.1531V37.1531C23.8425 37.1531 23.2969 36.9532 22.5022 36.3487C21.6842 35.7264 20.7273 34.7754 19.3586 33.4108L17.9465 34.8271ZM42.9841 22.6827C44.6804 20.9915 45.7387 19.9614 46.2949 18.6227L44.448 17.8554C44.0802 18.7407 43.3842 19.4596 41.572 21.2664L42.9841 22.6827ZM44.8335 13.4168C44.8335 15.9721 44.8157 16.9704 44.448 17.8554L46.2949 18.6227C46.8512 17.2836 46.8335 15.8085 46.8335 13.4168H44.8335ZM36.5558 3.16699C34.1563 3.16699 32.6788 3.14938 31.3374 3.70333L32.1008 5.5519C32.9902 5.1846 33.9935 5.16699 36.5558 5.16699V3.16699ZM17.928 33.4008L22.2197 29.122L20.8076 27.7056L16.5159 31.9845L17.928 33.4008ZM29.3911 33.4108C28.3311 34.4676 27.5135 35.2819 26.8062 35.8928C26.0971 36.5051 25.5704 36.8483 25.1103 37.0178L25.8016 38.8945C26.5983 38.601 27.3414 38.0732 28.1134 37.4065C28.8871 36.7383 29.7617 35.8654 30.8032 34.8271L29.3911 33.4108ZM25.1103 37.0178C24.8588 37.1104 24.6212 37.1531 24.3748 37.1531V39.1531C24.8691 39.1531 25.3402 39.0644 25.8016 38.8945L25.1103 37.0178ZM15.0853 19.1479C14.0691 20.1612 13.2113 21.0156 12.5487 21.7719C11.8878 22.5261 11.3595 23.2495 11.0506 24.0178L12.9062 24.764C13.0894 24.3083 13.4428 23.7862 14.0529 23.09C14.6612 22.3957 15.4639 21.5947 16.4974 20.5643L15.0853 19.1479ZM11.0506 24.0178C10.8507 24.5148 10.7451 25.0235 10.7451 25.5612H12.7451C12.7451 25.2966 12.795 25.0405 12.9062 24.764L11.0506 24.0178ZM16.4974 20.5643L26.7478 10.3446L25.3358 8.92829L15.0853 19.1479L16.4974 20.5643Z" fill="#074784"/>
<path d="M11.6114 24.0248L12.3185 23.3177L12.3175 23.3166L11.6114 24.0248ZM20.9705 14.9908C21.4349 15.2897 22.0537 15.1555 22.3526 14.6911C22.6515 14.2267 22.5174 13.6079 22.053 13.309L20.9705 14.9908ZM20.2009 13.3062L20.7421 12.4653L20.7421 12.4653L20.2009 13.3062ZM14.8475 10.5593L14.9937 9.57002L14.8475 10.5593ZM4.63604 16.7164L5.34207 17.4246H5.34207L4.63604 16.7164ZM11.1241 11.0351L11.5073 11.9588L11.1241 11.0351ZM5.9652 19.6389L5.59682 20.5686H5.59682L5.9652 19.6389ZM5.84097 20.6662C6.35161 20.8766 6.93612 20.6332 7.1465 20.1226C7.35689 19.6119 7.11349 19.0274 6.60284 18.817L5.84097 20.6662ZM5.17636 19.3263L5.54474 18.3967L5.54474 18.3967L5.17636 19.3263ZM11.2715 25.099C11.662 25.4896 12.2952 25.4896 12.6857 25.099C13.0762 24.7085 13.0762 24.0753 12.6857 23.6848L11.2715 25.099ZM11.3167 22.3188C10.9256 21.9289 10.2924 21.9299 9.90248 22.321C9.51254 22.7121 9.51349 23.3452 9.9046 23.7352L11.3167 22.3188ZM22.053 13.309L20.7421 12.4653L19.6597 14.1471L20.9705 14.9908L22.053 13.309ZM20.7421 12.4653C19.4402 11.6274 18.4165 10.9676 17.5408 10.4958C16.6526 10.0172 15.8565 9.69753 14.9937 9.57002L14.7013 11.5485C15.2475 11.6292 15.8132 11.8368 16.5921 12.2565C17.3835 12.6829 18.332 13.2925 19.6597 14.1471L20.7421 12.4653ZM5.34207 17.4246C6.51292 16.2573 7.78038 14.9939 8.92208 13.9524C9.49266 13.4319 10.0199 12.9778 10.4785 12.6244C10.9525 12.259 11.2959 12.0465 11.5073 11.9588L10.7409 10.1115C10.2762 10.3043 9.7621 10.6514 9.25754 11.0403C8.73749 11.4411 8.16483 11.936 7.57418 12.4749C6.3934 13.552 5.093 14.8488 3.93001 16.0083L5.34207 17.4246ZM14.9937 9.57002C13.5668 9.35915 12.0958 9.54927 10.7409 10.1115L11.5073 11.9588C12.5376 11.5313 13.6431 11.3922 14.7013 11.5485L14.9937 9.57002ZM4.80798 20.256L5.59682 20.5686L6.33358 18.7092L5.54474 18.3967L4.80798 20.256ZM5.59682 20.5686C5.72804 20.6206 5.78519 20.6433 5.84097 20.6662L6.60284 18.817C6.53169 18.7877 6.46001 18.7593 6.33358 18.7092L5.59682 20.5686ZM3.93001 16.0083C2.60554 17.3287 3.07185 19.5681 4.80798 20.256L5.54474 18.3967C5.14351 18.2377 5.0402 17.7256 5.34207 17.4246L3.93001 16.0083ZM10.9043 24.7319L11.2715 25.099L12.6857 23.6848L12.3185 23.3177L10.9043 24.7319ZM9.9046 23.7352L10.9054 24.7329L12.3175 23.3166L11.3167 22.3188L9.9046 23.7352Z" fill="#074784"/>
<path d="M26.0409 38.5421L25.3338 39.2492C25.3493 39.2646 25.3652 39.2796 25.3817 39.294L26.0409 38.5421ZM36.6601 27.8725C36.3599 27.4089 35.7408 27.2764 35.2772 27.5766C34.8136 27.8768 34.6811 28.4959 34.9813 28.9595L36.6601 27.8725ZM36.6669 29.7229L35.8275 30.2665L35.8275 30.2665L36.6669 29.7229ZM39.4221 35.0603L40.4112 34.9132L39.4221 35.0603ZM33.2464 45.2411L32.5404 44.5329H32.5404L33.2464 45.2411ZM38.9448 38.7725L38.022 38.3873L38.9448 38.7725ZM31.6553 44.5773C31.4508 44.0643 30.8691 43.8142 30.3561 44.0187C29.8431 44.2232 29.593 44.8049 29.7975 45.3179L31.6553 44.5773ZM26.471 40.2491C26.8863 40.6132 27.5181 40.5717 27.8822 40.1564C28.2463 39.7411 28.2048 39.1093 27.7895 38.7452L26.471 40.2491ZM33.0713 45.4157L33.7774 46.1238L33.0713 45.4157ZM26.1622 37.2491C25.7717 36.8586 25.1385 36.8586 24.748 37.2491C24.3574 37.6396 24.3574 38.2728 24.748 38.6633L26.1622 37.2491ZM34.9813 28.9595L35.8275 30.2665L37.5063 29.1794L36.6601 27.8725L34.9813 28.9595ZM32.5404 44.5329L32.3653 44.7075L33.7774 46.1238L33.9525 45.9493L32.5404 44.5329ZM35.8275 30.2665C36.6847 31.5903 37.296 32.5357 37.7237 33.3246C38.1445 34.1009 38.3522 34.6641 38.433 35.2073L40.4112 34.9132C40.2832 34.0517 39.9621 33.2571 39.4819 32.3714C39.0086 31.4982 38.3467 30.4774 37.5063 29.1794L35.8275 30.2665ZM33.9525 45.9493C35.1154 44.7898 36.4161 43.4933 37.4965 42.316C38.037 41.7271 38.5334 41.1561 38.9355 40.6376C39.3255 40.1346 39.674 39.6217 39.8677 39.1577L38.022 38.3873C37.9343 38.5974 37.7215 38.9393 37.355 39.4121C37.0005 39.8692 36.5451 40.3948 36.023 40.9637C34.9784 42.102 33.7112 43.3656 32.5404 44.5329L33.9525 45.9493ZM38.433 35.2073C38.5896 36.2606 38.4503 37.3613 38.022 38.3873L39.8677 39.1577C40.432 37.8057 40.623 36.3375 40.4112 34.9132L38.433 35.2073ZM27.7895 38.7452L26.7002 37.7901L25.3817 39.294L26.471 40.2491L27.7895 38.7452ZM32.3653 44.7075C32.1382 44.9339 31.7586 44.8363 31.6553 44.5773L29.7975 45.3179C30.4444 46.9408 32.557 47.3406 33.7774 46.1238L32.3653 44.7075ZM26.748 37.835L26.1622 37.2491L24.748 38.6633L25.3338 39.2492L26.748 37.835Z" fill="#074784"/>
<path d="M29.3912 21.7453C29.7823 22.1352 30.4155 22.1342 30.8054 21.7431C31.1953 21.352 31.1944 20.7189 30.8033 20.3289L29.3912 21.7453ZM35.1135 20.3289C34.7224 20.7189 34.7214 21.352 35.1114 21.7431C35.5013 22.1342 36.1345 22.1352 36.5256 21.7453L35.1135 20.3289ZM36.5256 14.6238C34.5551 12.6593 31.3616 12.6593 29.3912 14.6238L30.8033 16.0401C31.9932 14.8538 33.9236 14.8538 35.1135 16.0401L36.5256 14.6238ZM29.3912 14.6238C27.4191 16.59 27.4191 19.7791 29.3912 21.7453L30.8033 20.3289C29.6151 19.1443 29.6151 17.2248 30.8033 16.0401L29.3912 14.6238ZM36.5256 21.7453C38.4977 19.7791 38.4977 16.59 36.5256 14.6238L35.1135 16.0401C36.3017 17.2248 36.3017 19.1443 35.1135 20.3289L36.5256 21.7453Z" fill="#074784"/>
</svg>
