<svg width="50" height="50" viewBox="0 0 50 50" fill="none" xmlns="http://www.w3.org/2000/svg">
<path d="M25 18.7503L33.3333 10.417M25 30.2087L31.25 23.9587M38.5417 16.667L35.1562 20.0524M25 40.6253L28.9062 36.7191M40.625 25.0003L32.8125 32.8128" stroke="#074784" stroke-width="1.5" stroke-linecap="round"/>
<path d="M25.0002 45.833C34.2049 45.833 41.6668 38.2374 41.6668 28.8678C41.6668 19.5716 36.3474 8.72382 28.0479 4.84458C27.0806 4.39242 26.0404 4.16634 25.0002 4.16634M25.0002 45.833C15.7954 45.833 8.3335 38.2374 8.3335 28.8678C8.3335 25.5636 9.00553 22.0633 10.2446 18.7497M25.0002 45.833V4.16634M25.0002 4.16634C23.96 4.16634 22.9198 4.39242 21.9524 4.84458C18.6169 6.40359 15.7628 9.08813 13.5418 12.3451" stroke="#074784" stroke-width="2" stroke-linecap="round"/>
</svg>
