<svg width="50" height="50" viewBox="0 0 50 50" fill="none" xmlns="http://www.w3.org/2000/svg">
<path d="M13.5415 22.917C14.7226 24.2302 16.159 25.0003 17.7082 25.0003C19.2574 25.0003 20.6938 24.2302 21.8748 22.917" stroke="#074784" stroke-width="2" stroke-linecap="round"/>
<path d="M28.125 22.917C29.3061 24.2302 30.7424 25.0003 32.2917 25.0003C33.8409 25.0003 35.2773 24.2302 36.4583 22.917" stroke="#074784" stroke-width="2" stroke-linecap="round"/>
<path d="M27.0832 33.3333C27.0832 34.4839 26.1504 35.4167 24.9998 35.4167C23.8492 35.4167 22.9165 34.4839 22.9165 33.3333C22.9165 32.1827 23.8492 31.25 24.9998 31.25C26.1504 31.25 27.0832 32.1827 27.0832 33.3333Z" fill="#074784"/>
<path d="M35.4165 8.33301L42.6334 4.16634L39.5832 15.5499L46.8 11.3832" stroke="#074784" stroke-width="2" stroke-linecap="round" stroke-linejoin="round"/>
<path d="M29.2666 11.458L32.875 13.5413L27.1833 15.0664L30.7917 17.1498" stroke="#074784" stroke-width="2" stroke-linecap="round" stroke-linejoin="round"/>
<path d="M45.8332 25.0003C45.8332 36.5063 36.5058 45.8337 24.9998 45.8337C21.2052 45.8337 17.6475 44.8191 14.5832 43.0465M24.9998 4.16699C13.4939 4.16699 4.1665 13.4944 4.1665 25.0003C4.1665 28.795 5.18103 32.3527 6.95363 35.417" stroke="#074784" stroke-width="2" stroke-linecap="round"/>
</svg>
