<svg width="50" height="50" viewBox="0 0 50 50" fill="none" xmlns="http://www.w3.org/2000/svg">
<path d="M30.2082 9.37533C30.2082 12.2518 27.8763 14.5837 24.9998 14.5837C22.1234 14.5837 19.7915 12.2518 19.7915 9.37533C19.7915 6.49884 22.1234 4.16699 24.9998 4.16699C27.8763 4.16699 30.2082 6.49884 30.2082 9.37533Z" stroke="#074784" stroke-width="2"/>
<path d="M43.75 35.4168L41.3381 34.6045C40.8648 34.445 40.4147 34.2226 39.9995 33.9429L39.7886 33.8009C38.3588 32.8377 37.5 31.2162 37.5 29.4798C37.5 28.7236 37.4194 27.9839 37.2659 27.2698M6.25 35.4168L8.66187 34.6045C9.13518 34.445 9.58534 34.2226 10.0005 33.9429L10.2114 33.8009C11.6412 32.8377 12.5 31.2162 12.5 29.4798C12.5 24.4024 16.1328 20.0693 21.0892 19.2345L22.945 18.922C23.9583 18.7502 26.0417 18.75 27.055 18.922L28.9108 19.2345C29.7302 19.3725 30.5134 19.6061 31.25 19.9229" stroke="#074784" stroke-width="2" stroke-linecap="round" stroke-linejoin="round"/>
<path d="M19.7918 33.333L17.8658 35.9011C17.5584 36.311 17.4047 36.5159 17.2321 36.6963C16.8051 37.1427 16.2842 37.4886 15.707 37.7089C15.4738 37.7979 15.2253 37.8601 14.7282 37.9843L10.992 38.9184C9.42957 39.309 8.3335 40.7128 8.3335 42.3233C8.3335 44.2617 9.90484 45.833 11.8432 45.833H13.2677C16.8264 45.833 20.2892 44.6788 23.1361 42.5435L27.0835 39.583M30.2085 33.333L31.7225 35.3516C32.438 36.3056 32.7957 36.7826 33.2601 37.1351C33.3998 37.2411 33.546 37.3382 33.6979 37.4258C34.203 37.7171 34.7815 37.8617 35.9384 38.1509L39.0084 38.9184C40.5708 39.309 41.6668 40.7128 41.6668 42.3233C41.6668 44.2617 40.0955 45.833 38.1571 45.833H36.2036C35.0321 45.833 34.4463 45.833 33.8656 45.8006C32.1499 45.7047 30.4527 45.3969 28.8126 44.8843C28.2575 44.7108 27.709 44.5051 26.6122 44.0938L22.9168 42.708" stroke="#074784" stroke-width="2" stroke-linecap="round" stroke-linejoin="round"/>
</svg>
