<svg width="50" height="50" viewBox="0 0 50 50" fill="none" xmlns="http://www.w3.org/2000/svg">
<path d="M25 4.16699V8.33366" stroke="#074784" stroke-width="2" stroke-linecap="round"/>
<path d="M25 41.667V45.8337" stroke="#074784" stroke-width="2" stroke-linecap="round"/>
<path d="M4.1665 25L8.33317 25" stroke="#074784" stroke-width="2" stroke-linecap="round"/>
<path d="M41.6665 25L45.8332 25" stroke="#074784" stroke-width="2" stroke-linecap="round"/>
<path d="M12.5 37.5L13.2147 36.7853" stroke="#074784" stroke-width="2" stroke-linecap="round"/>
<path d="M36.7847 13.2148L37.4998 12.4997" stroke="#074784" stroke-width="2" stroke-linecap="round"/>
<path d="M37.5 37.5L36.7853 36.7853" stroke="#074784" stroke-width="2" stroke-linecap="round"/>
<path d="M13.2153 13.2148L12.5002 12.4997" stroke="#074784" stroke-width="2" stroke-linecap="round"/>
<path d="M22.4679 31.9871L21.8426 32.7675L22.4679 31.9871ZM15.6665 23.7075C15.6665 24.2598 16.1142 24.7075 16.6665 24.7075C17.2188 24.7075 17.6665 24.2598 17.6665 23.7075H15.6665ZM24.9998 20.627L24.2737 21.3145C24.4625 21.514 24.7251 21.627 24.9998 21.627C25.2745 21.627 25.5371 21.514 25.726 21.3145L24.9998 20.627ZM27.5317 31.9871L28.1571 32.7675L27.5317 31.9871ZM21.0782 29.6014C20.6546 29.247 20.0239 29.3031 19.6695 29.7267C19.3151 30.1503 19.3712 30.781 19.7948 31.1354L21.0782 29.6014ZM17.6665 23.7075C17.6665 22.0128 18.608 20.6205 19.8484 20.0442C21.0211 19.4992 22.6529 19.6028 24.2737 21.3145L25.726 19.9395C23.5969 17.6908 21.062 17.2748 19.0056 18.2304C17.0168 19.1545 15.6665 21.2827 15.6665 23.7075H17.6665ZM21.8426 32.7675C22.2659 33.1067 22.7443 33.4885 23.2351 33.78C23.7252 34.0711 24.3251 34.3333 24.9998 34.3333V32.3333C24.8412 32.3333 24.6078 32.2691 24.2566 32.0605C23.906 31.8523 23.5352 31.5609 23.0933 31.2068L21.8426 32.7675ZM28.1571 32.7675C29.3241 31.8323 30.8846 30.7102 32.105 29.3132C33.3595 27.8772 34.3332 26.074 34.3332 23.7075H32.3332C32.3332 25.4606 31.632 26.8147 30.5988 27.9974C29.5315 29.2192 28.1913 30.1771 26.9064 31.2068L28.1571 32.7675ZM34.3332 23.7075C34.3332 21.2827 32.9829 19.1545 30.9941 18.2304C28.9376 17.2748 26.4028 17.6908 24.2737 19.9395L25.726 21.3145C27.3467 19.6028 28.9786 19.4992 30.1513 20.0442C31.3917 20.6205 32.3332 22.0128 32.3332 23.7075H34.3332ZM26.9064 31.2068C26.4645 31.5609 26.0936 31.8523 25.7431 32.0605C25.3919 32.2691 25.1585 32.3333 24.9998 32.3333V34.3333C25.6745 34.3333 26.2745 34.0711 26.7645 33.78C27.2553 33.4885 27.7337 33.1067 28.1571 32.7675L26.9064 31.2068ZM23.0933 31.2068C22.4168 30.6647 21.7597 30.1716 21.0782 29.6014L19.7948 31.1354C20.4891 31.7162 21.2369 32.2821 21.8426 32.7675L23.0933 31.2068Z" fill="#074784"/>
</svg>
