<svg width="50" height="50" viewBox="0 0 50 50" fill="none" xmlns="http://www.w3.org/2000/svg">
<path d="M35.1823 29.9167C38.0365 30.3958 41.1823 29.8958 43.3906 28.4167C46.3281 26.4583 46.3281 23.25 43.3906 21.2917C41.1615 19.8125 37.974 19.3125 35.1198 19.8125M14.4115 29.9167C11.5573 30.3958 8.41146 29.8958 6.20313 28.4167C3.26563 26.4583 3.26563 23.25 6.20313 21.2917C8.43229 19.8125 11.6198 19.3125 14.474 19.8125M37.3281 14.75C37.197 14.7292 37.0634 14.7292 36.9323 14.75C35.5419 14.6997 34.2256 14.1109 33.2615 13.1078C32.2973 12.1048 31.7609 10.7662 31.7656 9.375C31.7656 6.39583 34.1615 4 37.1406 4C38.5662 4 39.9333 4.56629 40.9413 5.5743C41.9493 6.58231 42.5156 7.94946 42.5156 9.375C42.5118 10.7672 41.9698 12.1041 41.0029 13.1059C40.0361 14.1076 38.7194 14.6968 37.3281 14.75ZM12.2656 14.75C12.3906 14.7292 12.5365 14.7292 12.6615 14.75C14.0518 14.6997 15.3681 14.1109 16.3323 13.1078C17.2964 12.1048 17.8328 10.7662 17.8281 9.375C17.8281 6.39583 15.4323 4 12.4531 4C11.0276 4 9.66043 4.56629 8.65243 5.5743C7.64442 6.58231 7.07813 7.94946 7.07813 9.375C7.09896 12.2917 9.39062 14.6458 12.2656 14.75ZM24.8281 30.3125C24.697 30.2917 24.5634 30.2917 24.4323 30.3125C23.0419 30.2622 21.7256 29.6734 20.7615 28.6703C19.7973 27.6673 19.2609 26.3287 19.2656 24.9375C19.2656 21.9583 21.6615 19.5625 24.6406 19.5625C26.0662 19.5625 27.4333 20.1288 28.4413 21.1368C29.4493 22.1448 30.0156 23.512 30.0156 24.9375C29.9948 27.8542 27.7031 30.2292 24.8281 30.3125ZM18.7656 36.875C15.8281 38.8333 15.8281 42.0417 18.7656 44C22.099 46.2292 27.5573 46.2292 30.8906 44C33.8281 42.0417 33.8281 38.8333 30.8906 36.875C27.5781 34.6667 22.099 34.6667 18.7656 36.875Z" stroke="#074784" stroke-width="2" stroke-linecap="round" stroke-linejoin="round"/>
</svg>
