<svg width="50" height="50" viewBox="0 0 50 50" fill="none" xmlns="http://www.w3.org/2000/svg">
<path d="M39.5835 39.583L36.4585 36.458" stroke="#074784" stroke-width="2" stroke-linecap="round"/>
<path d="M39.5835 10.417L36.4585 13.542" stroke="#074784" stroke-width="2" stroke-linecap="round"/>
<path d="M10.4165 39.583L13.5415 36.458" stroke="#074784" stroke-width="2" stroke-linecap="round"/>
<path d="M10.4165 10.417L13.5415 13.542" stroke="#074784" stroke-width="2" stroke-linecap="round"/>
<path d="M4.1665 25H8.33317" stroke="#074784" stroke-width="2" stroke-linecap="round"/>
<path d="M41.6661 25L45.8327 25" stroke="#074784" stroke-width="2" stroke-linecap="round"/>
<path d="M25 8.33345L25 4.16679" stroke="#074784" stroke-width="2" stroke-linecap="round"/>
<path d="M28.7047 29.9243C31.1455 27.4835 31.1455 23.5262 28.7047 21.0855C26.2639 18.6447 22.3066 18.6447 19.8659 21.0855C18.9374 22.0139 18.289 23.9412 17.8419 25.9732C17.1734 29.0118 16.8391 30.5311 18.0491 31.7411C19.2591 32.9511 20.7784 32.6168 23.817 31.9482C25.8489 31.5011 27.7763 30.8527 28.7047 29.9243Z" stroke="#074784" stroke-width="2"/>
<path d="M18.7498 44.8799C10.2975 42.2252 4.1665 34.3287 4.1665 25.0003C4.1665 13.4944 13.4939 4.16699 24.9998 4.16699C36.5058 4.16699 45.8332 13.4944 45.8332 25.0003C45.8332 34.3287 39.7021 42.2252 31.2498 44.8799" stroke="#074784" stroke-width="2" stroke-linecap="round"/>
</svg>
