<svg width="50" height="50" viewBox="0 0 50 50" fill="none" xmlns="http://www.w3.org/2000/svg">
<path d="M20.3805 7.29094C23.3409 5.90302 26.6586 5.90302 29.619 7.29094L43.559 13.8263C46.5912 15.2479 46.5912 20.1689 43.559 21.5904L29.6192 28.1257C26.6588 29.5136 23.3411 29.5136 20.3807 28.1257L6.44067 21.5903C3.40844 20.1688 3.40845 15.2478 6.44068 13.8262L12.4998 10.9856" stroke="#074784" stroke-width="2" stroke-linecap="round"/>
<path d="M4.1665 17.708V29.1663" stroke="#074784" stroke-width="2" stroke-linecap="round"/>
<path d="M24.9998 43.7497C21.2582 43.7497 16.3617 41.4137 13.3026 39.7196C11.4655 38.7022 10.4165 36.736 10.4165 34.636V23.958M39.5832 23.958V34.636C39.5832 36.736 38.5342 38.7022 36.6971 39.7196C35.5921 40.3316 34.2473 41.0272 32.8039 41.6663" stroke="#074784" stroke-width="2" stroke-linecap="round"/>
</svg>
