<svg width="50" height="50" viewBox="0 0 50 50" fill="none" xmlns="http://www.w3.org/2000/svg">
<path d="M34.3752 35.8775C36.5784 34.9279 38.7792 33.4738 40.4824 31.2503M15.3906 16.8929L16.848 11.2071C17.7658 7.62612 18.2247 5.83561 19.4232 4.93549C19.8249 4.63372 20.2753 4.40983 20.7527 4.27446C22.1769 3.87068 23.7957 4.62872 27.0331 6.14479C29.4304 7.26744 30.6291 7.82876 31.8799 8.22579C32.3147 8.36382 32.7538 8.48682 33.1964 8.59458C34.4695 8.90453 35.7761 9.04495 38.3892 9.32579C41.918 9.70505 43.6824 9.89468 44.7227 10.9888C45.0714 11.3556 45.3543 11.7849 45.558 12.2562C46.1653 13.6622 45.7064 15.4527 44.7885 19.0337L43.7932 22.917" stroke="#074784" stroke-width="2" stroke-linecap="round"/>
<path d="M5.13935 27.0833C4.27034 23.6902 3.85142 21.9576 4.44253 20.5892C4.64614 20.1179 4.92905 19.6886 5.2778 19.3218C6.31809 18.2277 8.0825 18.0381 11.6113 17.6588C14.2244 17.378 15.531 17.2375 16.804 16.9276C17.2467 16.8198 17.6858 16.6968 18.1206 16.5588C19.3714 16.1618 20.57 15.6004 22.9674 14.4778C26.2048 12.9617 27.8235 12.2037 29.2478 12.6075C29.7252 12.7428 30.1756 12.9667 30.5773 13.2685C31.7757 14.1686 32.2347 15.9591 33.1525 19.5401L34.9132 26.4096C36.9829 34.4846 32.2383 40.2812 28.6094 43.3789C27.5023 44.3239 26.9488 44.7964 24.8065 45.3965C22.6643 45.9966 21.9589 45.8767 20.5481 45.637C16.1571 44.8908 9.73107 42.563 7.32182 35.4167" stroke="#074784" stroke-width="2" stroke-linecap="round"/>
<path d="M10.9562 27.6989C11.0814 26.4088 12.0419 25.2511 13.4355 24.8777C14.8291 24.5043 16.2397 25.0266 16.9932 26.0812" stroke="#074784" stroke-width="2" stroke-linecap="round"/>
<path d="M39.9579 18.6159C39.8326 17.3257 38.8721 16.1681 37.4786 15.7947C36.085 15.4213 34.6743 15.9436 33.9208 16.9982" stroke="#074784" stroke-width="2" stroke-linecap="round"/>
<path d="M23.0304 24.4635C23.1557 23.1734 24.1162 22.0158 25.5097 21.6424C26.9033 21.269 28.3139 21.7912 29.0675 22.8459" stroke="#074784" stroke-width="2" stroke-linecap="round"/>
<path d="M22.6594 14.3441C22.3383 14.7935 21.7137 14.8975 21.2644 14.5764C20.815 14.2554 20.711 13.6308 21.032 13.1814L22.6594 14.3441ZM25.1446 13.5252C24.138 13.2554 23.1612 13.6418 22.6594 14.3441L21.032 13.1814C22.0373 11.7745 23.8817 11.1162 25.6623 11.5933L25.1446 13.5252ZM26.4404 14.3755C26.1356 13.9824 25.6906 13.6715 25.1446 13.5252L25.6623 11.5933C26.635 11.854 27.4516 12.4157 28.021 13.15L26.4404 14.3755Z" fill="#074784"/>
<path d="M27.501 33.8145C27.501 33.8145 25.3658 32.2297 21.642 33.2275C17.9182 34.2253 16.8615 36.6653 16.8615 36.6653" stroke="#074784" stroke-width="2" stroke-linecap="round"/>
</svg>
