<svg width="50" height="50" viewBox="0 0 50 50" fill="none" xmlns="http://www.w3.org/2000/svg">
<path d="M25 6.25C21.5482 6.25 18.75 9.04822 18.75 12.5C18.75 15.9518 21.5482 18.75 25 18.75C28.4518 18.75 31.25 15.9518 31.25 12.5" stroke="#074784" stroke-width="2" stroke-linecap="round"/>
<path d="M11.4585 31.25C8.00672 31.25 5.2085 34.0482 5.2085 37.5C5.2085 40.9518 8.00672 43.75 11.4585 43.75C14.9103 43.75 17.7085 40.9518 17.7085 37.5" stroke="#074784" stroke-width="2" stroke-linecap="round"/>
<path d="M38.5415 43.75C35.0897 43.75 32.2915 40.9518 32.2915 37.5C32.2915 34.0482 35.0897 31.25 38.5415 31.25C41.9933 31.25 44.7915 34.0482 44.7915 37.5" stroke="#074784" stroke-width="2" stroke-linecap="round"/>
<path d="M41.6668 27.0831C41.6668 22.1051 39.4845 17.6369 36.0244 14.583M8.3335 27.0831C8.3335 22.1051 10.5158 17.6369 13.976 14.583M20.8335 43.2247C22.1652 43.5674 23.5614 43.7497 25.0002 43.7497C26.4389 43.7497 27.8351 43.5674 29.1668 43.2247" stroke="#074784" stroke-width="2" stroke-linecap="round"/>
</svg>
