<svg width="50" height="50" viewBox="0 0 50 50" fill="none" xmlns="http://www.w3.org/2000/svg">
<path d="M45.8332 45.8337H24.9998C15.1789 45.8337 10.2684 45.8337 7.21748 42.7827C4.1665 39.7317 4.1665 34.8213 4.1665 25.0003V18.7503M4.1665 4.16699V10.417" stroke="#074784" stroke-width="2" stroke-linecap="round"/>
<path d="M39.5837 14.583L33.0878 22.763C32.0928 24.016 31.5953 24.6425 31.0241 24.9478C30.1459 25.4173 29.0965 25.4402 28.1988 25.0093C27.6149 24.7291 27.0906 24.1248 26.042 22.9163C24.9934 21.7078 24.4691 21.1035 23.8852 20.8233C22.9875 20.3925 21.9381 20.4153 21.0599 20.8848C20.4888 21.1901 19.9913 21.8166 18.9962 23.0695L12.5 31.2497" stroke="#074784" stroke-width="2" stroke-linecap="round"/>
</svg>
