<svg width="50" height="50" viewBox="0 0 50 50" fill="none" xmlns="http://www.w3.org/2000/svg">
<path d="M16.6665 25L20.8332 21.875L16.6665 18.75" stroke="#074784" stroke-width="2" stroke-linecap="round" stroke-linejoin="round"/>
<path d="M33.3335 25L29.1668 21.875L33.3335 18.75" stroke="#074784" stroke-width="2" stroke-linecap="round" stroke-linejoin="round"/>
<path d="M31.25 33.3333L29.1667 31.25L27.0833 33.3333L25 31.25L22.9167 33.3333L20.8333 31.25L18.75 33.3333" stroke="#074784" stroke-width="2" stroke-linecap="round" stroke-linejoin="round"/>
<path d="M14.5832 6.95412C17.6475 5.18152 21.2052 4.16699 24.9998 4.16699C36.5058 4.16699 45.8332 13.4944 45.8332 25.0003C45.8332 36.5063 36.5058 45.8337 24.9998 45.8337C13.4939 45.8337 4.1665 36.5063 4.1665 25.0003C4.1665 21.2057 5.18103 17.648 6.95363 14.5837" stroke="#074784" stroke-width="2" stroke-linecap="round"/>
</svg>
