<svg width="278" height="87" viewBox="0 0 278 87" fill="none" xmlns="http://www.w3.org/2000/svg">
<rect x="31.2084" y="1" width="24.5833" height="36.6667" rx="12.2917" stroke="#074784" stroke-width="2"/>
<rect x="1" y="55.7917" width="24.5833" height="36.6667" rx="12.2917" transform="rotate(-90 1 55.7917)" stroke="#074784" stroke-width="2"/>
<rect x="55.7916" y="86" width="24.5833" height="36.6667" rx="12.2917" transform="rotate(-180 55.7916 86)" stroke="#074784" stroke-width="2"/>
<rect x="49.3334" y="55.7917" width="24.5833" height="36.6667" rx="12.2917" transform="rotate(-90 49.3334 55.7917)" stroke="#074784" stroke-width="2"/>
<rect x="4.75601" y="22.1396" width="24.5833" height="36.6667" rx="12.2917" transform="rotate(-45 4.75601 22.1396)" stroke="#074784" stroke-width="2"/>
<rect x="22.1394" y="82.2435" width="24.5833" height="36.6667" rx="12.2917" transform="rotate(-135 22.1394 82.2435)" stroke="#074784" stroke-width="2"/>
<rect x="82.2428" y="64.8604" width="24.5833" height="36.6667" rx="12.2917" transform="rotate(135 82.2428 64.8604)" stroke="#074784" stroke-width="2"/>
<rect x="56.3162" y="48.0667" width="24.5833" height="36.6667" rx="12.2917" transform="rotate(-135 56.3162 48.0667)" stroke="#074784" stroke-width="2"/>
<path d="M107.875 30.625L117.484 14.75H121.797V37.5H117.484V21.625L107.875 37.5H103.578V14.75H107.875V30.625ZM132.797 34.5625C133.38 34.5625 133.901 34.4479 134.359 34.2188C134.818 33.9896 135.182 33.6667 135.453 33.25C135.734 32.8333 135.885 32.349 135.906 31.7969H139.797C139.776 32.9427 139.453 33.9688 138.828 34.875C138.203 35.7812 137.37 36.5 136.328 37.0312C135.297 37.5521 134.141 37.8125 132.859 37.8125C131.557 37.8125 130.422 37.5938 129.453 37.1562C128.484 36.7188 127.677 36.1094 127.031 35.3281C126.396 34.5469 125.917 33.6406 125.594 32.6094C125.281 31.5781 125.125 30.474 125.125 29.2969V28.7969C125.125 27.6198 125.281 26.5156 125.594 25.4844C125.917 24.4531 126.396 23.5469 127.031 22.7656C127.677 21.9844 128.484 21.375 129.453 20.9375C130.422 20.5 131.552 20.2812 132.844 20.2812C134.208 20.2812 135.406 20.5469 136.438 21.0781C137.479 21.6094 138.292 22.3594 138.875 23.3281C139.469 24.2969 139.776 25.4375 139.797 26.75H135.906C135.885 26.1458 135.75 25.6042 135.5 25.125C135.25 24.6458 134.896 24.2604 134.438 23.9688C133.979 23.6771 133.422 23.5312 132.766 23.5312C132.068 23.5312 131.484 23.6771 131.016 23.9688C130.557 24.2604 130.198 24.6615 129.938 25.1719C129.688 25.6719 129.51 26.2344 129.406 26.8594C129.312 27.474 129.266 28.1198 129.266 28.7969V29.2969C129.266 29.9844 129.312 30.6406 129.406 31.2656C129.51 31.8906 129.688 32.4531 129.938 32.9531C130.198 33.4427 130.557 33.8333 131.016 34.125C131.484 34.4167 132.078 34.5625 132.797 34.5625ZM146.953 20.5938V37.5H142.828V20.5938H146.953ZM157.969 20.5938L150.516 30.9688H146.125L145.609 27.1875H148.656L152.766 20.5938H157.969ZM153.016 37.5L148.391 30.25L151.828 28.0938L158.5 37.5H153.016ZM165.344 35.625L169.875 20.5938H174.297L167.516 40.0625C167.359 40.4792 167.156 40.9323 166.906 41.4219C166.667 41.9115 166.344 42.375 165.938 42.8125C165.531 43.2604 165.021 43.625 164.406 43.9062C163.802 44.1875 163.068 44.3281 162.203 44.3281C161.828 44.3281 161.495 44.3021 161.203 44.25C160.911 44.1979 160.604 44.1302 160.281 44.0469V40.9531C160.385 40.9635 160.505 40.9688 160.641 40.9688C160.786 40.9792 160.911 40.9844 161.016 40.9844C161.62 40.9844 162.12 40.9115 162.516 40.7656C162.911 40.6302 163.229 40.4062 163.469 40.0938C163.719 39.7917 163.927 39.3958 164.094 38.9062L165.344 35.625ZM163.109 20.5938L166.938 33.0469L167.609 37.4062L164.766 37.9219L158.656 20.5938H163.109ZM183.016 34.5625C183.599 34.5625 184.12 34.4479 184.578 34.2188C185.036 33.9896 185.401 33.6667 185.672 33.25C185.953 32.8333 186.104 32.349 186.125 31.7969H190.016C189.995 32.9427 189.672 33.9688 189.047 34.875C188.422 35.7812 187.589 36.5 186.547 37.0312C185.516 37.5521 184.359 37.8125 183.078 37.8125C181.776 37.8125 180.641 37.5938 179.672 37.1562C178.703 36.7188 177.896 36.1094 177.25 35.3281C176.615 34.5469 176.135 33.6406 175.812 32.6094C175.5 31.5781 175.344 30.474 175.344 29.2969V28.7969C175.344 27.6198 175.5 26.5156 175.812 25.4844C176.135 24.4531 176.615 23.5469 177.25 22.7656C177.896 21.9844 178.703 21.375 179.672 20.9375C180.641 20.5 181.771 20.2812 183.062 20.2812C184.427 20.2812 185.625 20.5469 186.656 21.0781C187.698 21.6094 188.51 22.3594 189.094 23.3281C189.688 24.2969 189.995 25.4375 190.016 26.75H186.125C186.104 26.1458 185.969 25.6042 185.719 25.125C185.469 24.6458 185.115 24.2604 184.656 23.9688C184.198 23.6771 183.641 23.5312 182.984 23.5312C182.286 23.5312 181.703 23.6771 181.234 23.9688C180.776 24.2604 180.417 24.6615 180.156 25.1719C179.906 25.6719 179.729 26.2344 179.625 26.8594C179.531 27.474 179.484 28.1198 179.484 28.7969V29.2969C179.484 29.9844 179.531 30.6406 179.625 31.2656C179.729 31.8906 179.906 32.4531 180.156 32.9531C180.417 33.4427 180.776 33.8333 181.234 34.125C181.703 34.4167 182.297 34.5625 183.016 34.5625ZM199.703 34.5625C200.286 34.5625 200.807 34.4479 201.266 34.2188C201.724 33.9896 202.089 33.6667 202.359 33.25C202.641 32.8333 202.792 32.349 202.812 31.7969H206.703C206.682 32.9427 206.359 33.9688 205.734 34.875C205.109 35.7812 204.276 36.5 203.234 37.0312C202.203 37.5521 201.047 37.8125 199.766 37.8125C198.464 37.8125 197.328 37.5938 196.359 37.1562C195.391 36.7188 194.583 36.1094 193.938 35.3281C193.302 34.5469 192.823 33.6406 192.5 32.6094C192.188 31.5781 192.031 30.474 192.031 29.2969V28.7969C192.031 27.6198 192.188 26.5156 192.5 25.4844C192.823 24.4531 193.302 23.5469 193.938 22.7656C194.583 21.9844 195.391 21.375 196.359 20.9375C197.328 20.5 198.458 20.2812 199.75 20.2812C201.115 20.2812 202.312 20.5469 203.344 21.0781C204.385 21.6094 205.198 22.3594 205.781 23.3281C206.375 24.2969 206.682 25.4375 206.703 26.75H202.812C202.792 26.1458 202.656 25.6042 202.406 25.125C202.156 24.6458 201.802 24.2604 201.344 23.9688C200.885 23.6771 200.328 23.5312 199.672 23.5312C198.974 23.5312 198.391 23.6771 197.922 23.9688C197.464 24.2604 197.104 24.6615 196.844 25.1719C196.594 25.6719 196.417 26.2344 196.312 26.8594C196.219 27.474 196.172 28.1198 196.172 28.7969V29.2969C196.172 29.9844 196.219 30.6406 196.312 31.2656C196.417 31.8906 196.594 32.4531 196.844 32.9531C197.104 33.4427 197.464 33.8333 197.922 34.125C198.391 34.4167 198.984 34.5625 199.703 34.5625ZM217.656 20.5938V37.5H213.516V20.5938H217.656ZM223.156 20.5938V23.8125H208.109V20.5938H223.156ZM233.891 30.3438H228.531L228.5 27.5469H232.906C233.562 27.5469 234.099 27.4792 234.516 27.3438C234.932 27.2083 235.24 27.0052 235.438 26.7344C235.646 26.4635 235.75 26.1354 235.75 25.75C235.75 25.4167 235.688 25.1302 235.562 24.8906C235.438 24.6406 235.25 24.4375 235 24.2812C234.76 24.125 234.453 24.0104 234.078 23.9375C233.714 23.8542 233.286 23.8125 232.797 23.8125H230V37.5H225.859V20.5938H232.797C233.891 20.5938 234.875 20.6927 235.75 20.8906C236.625 21.0781 237.37 21.3646 237.984 21.75C238.599 22.1354 239.068 22.625 239.391 23.2188C239.724 23.8021 239.891 24.4896 239.891 25.2812C239.891 25.8021 239.776 26.2917 239.547 26.75C239.318 27.2083 238.979 27.6146 238.531 27.9688C238.083 28.3229 237.531 28.6146 236.875 28.8438C236.219 29.0625 235.469 29.1979 234.625 29.25L233.891 30.3438ZM233.891 37.5H227.422L228.953 34.2812H233.891C234.495 34.2812 234.995 34.2083 235.391 34.0625C235.786 33.9062 236.078 33.6823 236.266 33.3906C236.464 33.099 236.562 32.7448 236.562 32.3281C236.562 31.9219 236.469 31.5729 236.281 31.2812C236.104 30.9792 235.818 30.75 235.422 30.5938C235.036 30.4271 234.526 30.3438 233.891 30.3438H229.625L229.656 27.5469H234.609L235.703 28.6562C236.828 28.7292 237.76 28.9583 238.5 29.3438C239.24 29.7188 239.792 30.1979 240.156 30.7812C240.521 31.3542 240.703 31.9844 240.703 32.6719C240.703 33.474 240.552 34.1771 240.25 34.7812C239.948 35.3854 239.505 35.8906 238.922 36.2969C238.339 36.6927 237.625 36.9948 236.781 37.2031C235.938 37.401 234.974 37.5 233.891 37.5ZM242.969 29.2188V28.8906C242.969 27.651 243.146 26.5104 243.5 25.4688C243.854 24.4167 244.37 23.5052 245.047 22.7344C245.724 21.9635 246.552 21.3646 247.531 20.9375C248.51 20.5 249.625 20.2812 250.875 20.2812C252.146 20.2812 253.271 20.5 254.25 20.9375C255.24 21.3646 256.073 21.9635 256.75 22.7344C257.427 23.5052 257.943 24.4167 258.297 25.4688C258.651 26.5104 258.828 27.651 258.828 28.8906V29.2188C258.828 30.4479 258.651 31.5885 258.297 32.6406C257.943 33.6823 257.427 34.5938 256.75 35.375C256.073 36.1458 255.245 36.7448 254.266 37.1719C253.286 37.599 252.167 37.8125 250.906 37.8125C249.656 37.8125 248.536 37.599 247.547 37.1719C246.557 36.7448 245.724 36.1458 245.047 35.375C244.37 34.5938 243.854 33.6823 243.5 32.6406C243.146 31.5885 242.969 30.4479 242.969 29.2188ZM247.094 28.8906V29.2188C247.094 29.9583 247.167 30.651 247.312 31.2969C247.458 31.9427 247.682 32.5104 247.984 33C248.286 33.4896 248.677 33.875 249.156 34.1562C249.646 34.4271 250.229 34.5625 250.906 34.5625C251.573 34.5625 252.146 34.4271 252.625 34.1562C253.104 33.875 253.495 33.4896 253.797 33C254.109 32.5104 254.339 31.9427 254.484 31.2969C254.63 30.651 254.703 29.9583 254.703 29.2188V28.8906C254.703 28.1615 254.63 27.4792 254.484 26.8438C254.339 26.1979 254.109 25.6302 253.797 25.1406C253.495 24.6406 253.099 24.25 252.609 23.9688C252.13 23.6771 251.552 23.5312 250.875 23.5312C250.208 23.5312 249.635 23.6771 249.156 23.9688C248.677 24.25 248.286 24.6406 247.984 25.1406C247.682 25.6302 247.458 26.1979 247.312 26.8438C247.167 27.4792 247.094 28.1615 247.094 28.8906ZM113.828 46.1719H117.172C117.172 47.0573 117.057 47.8021 116.828 48.4062C116.599 49 116.245 49.5 115.766 49.9062C115.286 50.3021 114.672 50.6302 113.922 50.8906C113.172 51.151 112.276 51.3802 111.234 51.5781C110.359 51.7552 109.589 52.0469 108.922 52.4531C108.255 52.8594 107.698 53.4167 107.25 54.125C106.812 54.8333 106.495 55.7344 106.297 56.8281C106.099 57.9219 106.036 59.2396 106.109 60.7812V61.6875L102.875 62.0625V61.1562C102.875 59.1458 103.057 57.3958 103.422 55.9062C103.786 54.4062 104.302 53.1458 104.969 52.125C105.635 51.0938 106.432 50.276 107.359 49.6719C108.297 49.0573 109.344 48.625 110.5 48.375C111.271 48.2188 111.901 48.0573 112.391 47.8906C112.891 47.724 113.255 47.5104 113.484 47.25C113.714 46.9792 113.828 46.6198 113.828 46.1719ZM111.516 54.5469C112.651 54.5469 113.656 54.7448 114.531 55.1406C115.417 55.526 116.161 56.0729 116.766 56.7812C117.37 57.4792 117.828 58.3073 118.141 59.2656C118.464 60.2135 118.625 61.25 118.625 62.375V62.7031C118.625 63.8698 118.448 64.9479 118.094 65.9375C117.75 66.9271 117.245 67.7865 116.578 68.5156C115.911 69.2448 115.089 69.8125 114.109 70.2188C113.13 70.625 112.01 70.8281 110.75 70.8281C109.5 70.8281 108.385 70.6146 107.406 70.1875C106.427 69.75 105.599 69.1458 104.922 68.375C104.245 67.6042 103.734 66.6979 103.391 65.6562C103.047 64.6042 102.875 63.4583 102.875 62.2188V61.8906C102.865 61.6823 102.932 61.4844 103.078 61.2969C103.224 61.1094 103.396 60.901 103.594 60.6719C103.802 60.4427 103.99 60.1667 104.156 59.8438C104.729 58.7396 105.375 57.7917 106.094 57C106.823 56.2083 107.635 55.6042 108.531 55.1875C109.427 54.7604 110.422 54.5469 111.516 54.5469ZM110.719 57.7969C109.833 57.7969 109.115 58.0104 108.562 58.4375C108.021 58.8542 107.625 59.4115 107.375 60.1094C107.125 60.7969 107 61.5521 107 62.375V62.7031C107 63.3698 107.068 64 107.203 64.5938C107.349 65.1771 107.568 65.6927 107.859 66.1406C108.151 66.5885 108.536 66.9427 109.016 67.2031C109.495 67.4531 110.073 67.5781 110.75 67.5781C111.427 67.5781 112 67.4531 112.469 67.2031C112.948 66.9427 113.333 66.5885 113.625 66.1406C113.917 65.6927 114.13 65.1771 114.266 64.5938C114.411 64 114.484 63.3698 114.484 62.7031V62.375C114.484 61.7604 114.411 61.1771 114.266 60.625C114.13 60.0729 113.917 59.5885 113.625 59.1719C113.333 58.7448 112.943 58.4115 112.453 58.1719C111.974 57.9219 111.396 57.7969 110.719 57.7969ZM124.422 58.7969H129.359C130.859 58.7969 132.135 59.0469 133.188 59.5469C134.25 60.0365 135.057 60.724 135.609 61.6094C136.172 62.4844 136.453 63.5 136.453 64.6562C136.453 65.4896 136.292 66.2656 135.969 66.9844C135.656 67.6927 135.198 68.3125 134.594 68.8438C133.99 69.3646 133.245 69.7708 132.359 70.0625C131.484 70.3542 130.484 70.5 129.359 70.5H121.766V53.5938H125.906V67.2656H129.359C130.078 67.2656 130.651 67.1458 131.078 66.9062C131.516 66.6562 131.828 66.3385 132.016 65.9531C132.214 65.5573 132.312 65.1354 132.312 64.6875C132.312 64.2292 132.214 63.8021 132.016 63.4062C131.828 63 131.516 62.6719 131.078 62.4219C130.651 62.1719 130.078 62.0469 129.359 62.0469H124.422V58.7969ZM143.391 53.5938V70.5H139.25V53.5938H143.391ZM155.812 53.5938V70.5H151.672V53.5938H155.812ZM161.312 53.5938V56.8125H146.266V53.5938H161.312ZM166.672 58.7969H171.609C173.109 58.7969 174.385 59.0469 175.438 59.5469C176.5 60.0365 177.307 60.724 177.859 61.6094C178.422 62.4844 178.703 63.5 178.703 64.6562C178.703 65.4896 178.542 66.2656 178.219 66.9844C177.906 67.6927 177.448 68.3125 176.844 68.8438C176.24 69.3646 175.495 69.7708 174.609 70.0625C173.734 70.3542 172.734 70.5 171.609 70.5H164.016V53.5938H168.156V67.2656H171.609C172.328 67.2656 172.901 67.1458 173.328 66.9062C173.766 66.6562 174.078 66.3385 174.266 65.9531C174.464 65.5573 174.562 65.1354 174.562 64.6875C174.562 64.2292 174.464 63.8021 174.266 63.4062C174.078 63 173.766 62.6719 173.328 62.4219C172.901 62.1719 172.328 62.0469 171.609 62.0469H166.672V58.7969ZM196.391 67.5625C196.974 67.5625 197.495 67.4479 197.953 67.2188C198.411 66.9896 198.776 66.6667 199.047 66.25C199.328 65.8333 199.479 65.349 199.5 64.7969H203.391C203.37 65.9427 203.047 66.9688 202.422 67.875C201.797 68.7812 200.964 69.5 199.922 70.0312C198.891 70.5521 197.734 70.8125 196.453 70.8125C195.151 70.8125 194.016 70.5938 193.047 70.1562C192.078 69.7188 191.271 69.1094 190.625 68.3281C189.99 67.5469 189.51 66.6406 189.188 65.6094C188.875 64.5781 188.719 63.474 188.719 62.2969V61.7969C188.719 60.6198 188.875 59.5156 189.188 58.4844C189.51 57.4531 189.99 56.5469 190.625 55.7656C191.271 54.9844 192.078 54.375 193.047 53.9375C194.016 53.5 195.146 53.2812 196.438 53.2812C197.802 53.2812 199 53.5469 200.031 54.0781C201.073 54.6094 201.885 55.3594 202.469 56.3281C203.062 57.2969 203.37 58.4375 203.391 59.75H199.5C199.479 59.1458 199.344 58.6042 199.094 58.125C198.844 57.6458 198.49 57.2604 198.031 56.9688C197.573 56.6771 197.016 56.5312 196.359 56.5312C195.661 56.5312 195.078 56.6771 194.609 56.9688C194.151 57.2604 193.792 57.6615 193.531 58.1719C193.281 58.6719 193.104 59.2344 193 59.8594C192.906 60.474 192.859 61.1198 192.859 61.7969V62.2969C192.859 62.9844 192.906 63.6406 193 64.2656C193.104 64.8906 193.281 65.4531 193.531 65.9531C193.792 66.4427 194.151 66.8333 194.609 67.125C195.078 67.4167 195.672 67.5625 196.391 67.5625ZM205.406 62.2188V61.8906C205.406 60.651 205.583 59.5104 205.938 58.4688C206.292 57.4167 206.807 56.5052 207.484 55.7344C208.161 54.9635 208.99 54.3646 209.969 53.9375C210.948 53.5 212.062 53.2812 213.312 53.2812C214.583 53.2812 215.708 53.5 216.688 53.9375C217.677 54.3646 218.51 54.9635 219.188 55.7344C219.865 56.5052 220.38 57.4167 220.734 58.4688C221.089 59.5104 221.266 60.651 221.266 61.8906V62.2188C221.266 63.4479 221.089 64.5885 220.734 65.6406C220.38 66.6823 219.865 67.5938 219.188 68.375C218.51 69.1458 217.682 69.7448 216.703 70.1719C215.724 70.599 214.604 70.8125 213.344 70.8125C212.094 70.8125 210.974 70.599 209.984 70.1719C208.995 69.7448 208.161 69.1458 207.484 68.375C206.807 67.5938 206.292 66.6823 205.938 65.6406C205.583 64.5885 205.406 63.4479 205.406 62.2188ZM209.531 61.8906V62.2188C209.531 62.9583 209.604 63.651 209.75 64.2969C209.896 64.9427 210.12 65.5104 210.422 66C210.724 66.4896 211.115 66.875 211.594 67.1562C212.083 67.4271 212.667 67.5625 213.344 67.5625C214.01 67.5625 214.583 67.4271 215.062 67.1562C215.542 66.875 215.932 66.4896 216.234 66C216.547 65.5104 216.776 64.9427 216.922 64.2969C217.068 63.651 217.141 62.9583 217.141 62.2188V61.8906C217.141 61.1615 217.068 60.4792 216.922 59.8438C216.776 59.1979 216.547 58.6302 216.234 58.1406C215.932 57.6406 215.536 57.25 215.047 56.9688C214.568 56.6771 213.99 56.5312 213.312 56.5312C212.646 56.5312 212.073 56.6771 211.594 56.9688C211.115 57.25 210.724 57.6406 210.422 58.1406C210.12 58.6302 209.896 59.1979 209.75 59.8438C209.604 60.4792 209.531 61.1615 209.531 61.8906ZM234.734 46.1719H238.078C238.078 47.0573 237.964 47.8021 237.734 48.4062C237.505 49 237.151 49.5 236.672 49.9062C236.193 50.3021 235.578 50.6302 234.828 50.8906C234.078 51.151 233.182 51.3802 232.141 51.5781C231.266 51.7552 230.495 52.0469 229.828 52.4531C229.161 52.8594 228.604 53.4167 228.156 54.125C227.719 54.8333 227.401 55.7344 227.203 56.8281C227.005 57.9219 226.943 59.2396 227.016 60.7812V61.6875L223.781 62.0625V61.1562C223.781 59.1458 223.964 57.3958 224.328 55.9062C224.693 54.4062 225.208 53.1458 225.875 52.125C226.542 51.0938 227.339 50.276 228.266 49.6719C229.203 49.0573 230.25 48.625 231.406 48.375C232.177 48.2188 232.807 48.0573 233.297 47.8906C233.797 47.724 234.161 47.5104 234.391 47.25C234.62 46.9792 234.734 46.6198 234.734 46.1719ZM232.422 54.5469C233.557 54.5469 234.562 54.7448 235.438 55.1406C236.323 55.526 237.068 56.0729 237.672 56.7812C238.276 57.4792 238.734 58.3073 239.047 59.2656C239.37 60.2135 239.531 61.25 239.531 62.375V62.7031C239.531 63.8698 239.354 64.9479 239 65.9375C238.656 66.9271 238.151 67.7865 237.484 68.5156C236.818 69.2448 235.995 69.8125 235.016 70.2188C234.036 70.625 232.917 70.8281 231.656 70.8281C230.406 70.8281 229.292 70.6146 228.312 70.1875C227.333 69.75 226.505 69.1458 225.828 68.375C225.151 67.6042 224.641 66.6979 224.297 65.6562C223.953 64.6042 223.781 63.4583 223.781 62.2188V61.8906C223.771 61.6823 223.839 61.4844 223.984 61.2969C224.13 61.1094 224.302 60.901 224.5 60.6719C224.708 60.4427 224.896 60.1667 225.062 59.8438C225.635 58.7396 226.281 57.7917 227 57C227.729 56.2083 228.542 55.6042 229.438 55.1875C230.333 54.7604 231.328 54.5469 232.422 54.5469ZM231.625 57.7969C230.74 57.7969 230.021 58.0104 229.469 58.4375C228.927 58.8542 228.531 59.4115 228.281 60.1094C228.031 60.7969 227.906 61.5521 227.906 62.375V62.7031C227.906 63.3698 227.974 64 228.109 64.5938C228.255 65.1771 228.474 65.6927 228.766 66.1406C229.057 66.5885 229.443 66.9427 229.922 67.2031C230.401 67.4531 230.979 67.5781 231.656 67.5781C232.333 67.5781 232.906 67.4531 233.375 67.2031C233.854 66.9427 234.24 66.5885 234.531 66.1406C234.823 65.6927 235.036 65.1771 235.172 64.5938C235.318 64 235.391 63.3698 235.391 62.7031V62.375C235.391 61.7604 235.318 61.1771 235.172 60.625C235.036 60.0729 234.823 59.5885 234.531 59.1719C234.24 58.7448 233.849 58.4115 233.359 58.1719C232.88 57.9219 232.302 57.7969 231.625 57.7969ZM241.656 62.2188V61.8906C241.656 60.651 241.833 59.5104 242.188 58.4688C242.542 57.4167 243.057 56.5052 243.734 55.7344C244.411 54.9635 245.24 54.3646 246.219 53.9375C247.198 53.5 248.312 53.2812 249.562 53.2812C250.833 53.2812 251.958 53.5 252.938 53.9375C253.927 54.3646 254.76 54.9635 255.438 55.7344C256.115 56.5052 256.63 57.4167 256.984 58.4688C257.339 59.5104 257.516 60.651 257.516 61.8906V62.2188C257.516 63.4479 257.339 64.5885 256.984 65.6406C256.63 66.6823 256.115 67.5938 255.438 68.375C254.76 69.1458 253.932 69.7448 252.953 70.1719C251.974 70.599 250.854 70.8125 249.594 70.8125C248.344 70.8125 247.224 70.599 246.234 70.1719C245.245 69.7448 244.411 69.1458 243.734 68.375C243.057 67.5938 242.542 66.6823 242.188 65.6406C241.833 64.5885 241.656 63.4479 241.656 62.2188ZM245.781 61.8906V62.2188C245.781 62.9583 245.854 63.651 246 64.2969C246.146 64.9427 246.37 65.5104 246.672 66C246.974 66.4896 247.365 66.875 247.844 67.1562C248.333 67.4271 248.917 67.5625 249.594 67.5625C250.26 67.5625 250.833 67.4271 251.312 67.1562C251.792 66.875 252.182 66.4896 252.484 66C252.797 65.5104 253.026 64.9427 253.172 64.2969C253.318 63.651 253.391 62.9583 253.391 62.2188V61.8906C253.391 61.1615 253.318 60.4792 253.172 59.8438C253.026 59.1979 252.797 58.6302 252.484 58.1406C252.182 57.6406 251.786 57.25 251.297 56.9688C250.818 56.6771 250.24 56.5312 249.562 56.5312C248.896 56.5312 248.323 56.6771 247.844 56.9688C247.365 57.25 246.974 57.6406 246.672 58.1406C246.37 58.6302 246.146 59.1979 246 59.8438C245.854 60.4792 245.781 61.1615 245.781 61.8906ZM264.688 64.6094L270.844 53.5938H274.984V70.5H270.844V59.4688L264.688 70.5H260.547V53.5938H264.688V64.6094ZM270.078 46.9531H273.078C273.078 47.8281 272.865 48.6042 272.438 49.2812C272.01 49.9583 271.401 50.4896 270.609 50.875C269.828 51.25 268.901 51.4375 267.828 51.4375C266.214 51.4375 264.932 51.0208 263.984 50.1875C263.036 49.3542 262.562 48.276 262.562 46.9531H265.562C265.562 47.5052 265.734 48 266.078 48.4375C266.422 48.875 267.005 49.0938 267.828 49.0938C268.651 49.0938 269.229 48.875 269.562 48.4375C269.906 48 270.078 47.5052 270.078 46.9531Z" fill="#074784"/>
</svg>
