<svg width="248" height="249" viewBox="0 0 248 249" fill="none" xmlns="http://www.w3.org/2000/svg">
<path fill-rule="evenodd" clip-rule="evenodd" d="M244.243 95.1691C245.035 98.3898 245.693 101.615 246.22 104.839L73.1392 11.9182C76.1171 10.5759 79.1689 9.34221 82.2913 8.22336L244.243 95.1691ZM62.7846 17.1854C65.768 15.486 68.8402 13.9017 71.997 12.44L246.416 106.079C246.942 109.518 247.319 112.954 247.551 116.38L62.7846 17.1854ZM247.233 136.779C247.506 134.022 247.687 131.248 247.773 128.46L52.5926 23.6753C50.3168 25.2871 48.1042 26.9707 45.9572 28.7218L247.233 136.779ZM45.1225 29.4087C42.7858 31.3488 40.5284 33.3696 38.3531 35.4653L245.814 146.843C246.359 143.872 246.796 140.874 247.122 137.855L45.1225 29.4087ZM233.327 66.5213C230.958 62.0563 228.335 57.7789 225.484 53.7019L127.219 0.946935C122.245 0.822916 117.231 1.00056 112.2 1.49272L233.327 66.5213ZM110.432 1.67858C105.867 2.19189 101.29 2.96514 96.7199 4.0079L239.784 80.8138C238.128 76.4284 236.244 72.1865 234.149 68.0975L110.432 1.67858ZM242.538 88.9395C243.032 90.5765 243.49 92.2158 243.912 93.8566L83.5679 7.7737C85.169 7.21944 86.7883 6.69522 88.4253 6.20189C90.6962 5.51758 92.9713 4.90167 95.2486 4.353L240.309 82.2308C241.11 84.432 241.854 86.6687 242.538 88.9395ZM247.625 117.554C247.815 120.829 247.873 124.094 247.803 127.341L53.5092 23.0323C56.177 21.1791 58.93 19.4237 61.7647 17.7729L247.625 117.554ZM207.416 33.1752C213.576 38.7757 219.201 45.026 224.172 51.8627L129.476 1.02404C137.922 1.39027 146.239 2.6251 154.311 4.66507L207.416 33.1752ZM37.6007 36.1963C35.4885 38.2662 33.4554 40.4074 31.5044 42.6147L243.639 156.502C244.401 153.656 245.062 150.779 245.62 147.874L37.6007 36.1963ZM243.369 157.492L30.8279 43.3865C29.136 45.333 27.5073 47.3296 25.9436 49.373L241.078 164.871C241.918 162.439 242.682 159.978 243.369 157.492ZM240.744 165.827L25.3317 50.1794C23.6067 52.4721 21.9629 54.8223 20.403 57.2251L237.595 173.827C238.736 171.2 239.787 168.531 240.744 165.827ZM158.595 5.82992C175.284 10.6909 190.805 19.0238 204.078 30.2482L158.595 5.82992ZM3.79899 153.326C2.93636 149.724 2.24183 146.117 1.71067 142.513L176.836 236.532C173.539 238.08 170.149 239.494 166.67 240.765L3.79899 153.326ZM4.11946 154.633L165.403 241.22C163.56 241.871 161.692 242.483 159.801 243.053C158.266 243.515 156.73 243.946 155.192 244.347L7.1559 164.872C6.63984 163.369 6.15023 161.85 5.68776 160.315C5.11776 158.424 4.59522 156.529 4.11946 154.633ZM7.645 166.269L153.757 244.711C149.319 245.81 144.873 246.654 140.434 247.25L12.8897 178.776C10.9342 174.747 9.18048 170.575 7.645 166.269ZM13.6528 180.321L138.725 247.468C133.22 248.129 127.729 248.412 122.285 248.333L22.0155 194.502C18.9413 190.007 16.1433 185.275 13.6528 180.321ZM23.2805 196.316C27.9856 202.936 33.2982 209.018 39.1137 214.507L96.163 245.135C103.952 246.949 111.957 248.016 120.074 248.281L23.2805 196.316ZM42.1298 217.262C56.5035 229.958 73.6764 239.178 92.2008 244.143L42.1298 217.262ZM0.439577 121.261C0.361909 124.131 0.384679 127.015 0.510357 129.908L188.006 230.567C190.486 229.073 192.902 227.499 195.252 225.849L0.439577 121.261ZM187.004 231.164L0.566525 131.073C0.74634 134.468 1.06812 137.874 1.53584 141.285L177.957 235.998C181.058 234.504 184.075 232.89 187.004 231.164ZM0.47486 120.145C0.587899 117.02 0.81995 113.911 1.1678 110.826L203.547 219.476C201.168 221.471 198.705 223.381 196.163 225.202L0.47486 120.145ZM15.04 66.3072C13.8472 68.5379 12.7224 70.805 11.6674 73.1052L229.186 189.883C230.52 187.732 231.788 185.542 232.989 183.316L15.04 66.3072ZM228.654 190.732L11.2533 74.0178C10.0816 76.6277 8.99937 79.2793 8.00929 81.9676L223.82 197.828C225.514 195.518 227.126 193.151 228.654 190.732ZM15.515 65.4272C16.8784 62.926 18.3276 60.4716 19.8602 58.0686L237.192 174.746C236.036 177.351 234.791 179.915 233.459 182.433L15.515 65.4272ZM223.22 198.641L7.66394 82.9172C6.68668 85.6388 5.80356 88.3972 5.01727 91.1875L217.789 205.417C219.68 203.219 221.491 200.959 223.22 198.641ZM211.026 212.664C208.888 214.779 206.667 216.82 204.368 218.781L1.29292 109.758C1.65777 106.757 2.13217 103.779 2.71313 100.829L211.026 212.664ZM211.765 211.926L2.91934 99.8048C3.44726 97.2388 4.0559 94.6944 4.74329 92.1754L217.117 206.191C215.397 208.156 213.612 210.069 211.765 211.926Z" fill="url(#paint0_linear_496_1942)" fill-opacity="0.4"/>
<defs>
<linearGradient id="paint0_linear_496_1942" x1="25.6119" y1="53.4598" x2="220.907" y2="201.409" gradientUnits="userSpaceOnUse">
<stop stop-color="#85664E"/>
<stop offset="0.541667" stop-color="#142B52"/>
<stop offset="1" stop-color="#2C2C2C"/>
</linearGradient>
</defs>
</svg>
